<?xml version="1.0" encoding="UTF-8" standalone="no"?>
<svg
   enable-background="new 0 0 998.1 498.9"
   viewBox="0 0 664.90004 498.9"
   version="1.1"
   id="svg708"
   sodipodi:docname="scv.svg"
   width="664.90002"
   height="498.89999"
   inkscape:version="1.1.2 (b8e25be833, 2022-02-05)"
   xmlns:inkscape="http://www.inkscape.org/namespaces/inkscape"
   xmlns:sodipodi="http://sodipodi.sourceforge.net/DTD/sodipodi-0.dtd"
   xmlns="http://www.w3.org/2000/svg"
   xmlns:svg="http://www.w3.org/2000/svg">
  <defs
     id="defs712" />
  <sodipodi:namedview
     id="namedview710"
     pagecolor="#ffffff"
     bordercolor="#666666"
     borderopacity="1.0"
     inkscape:pageshadow="2"
     inkscape:pageopacity="0.0"
     inkscape:pagecheckerboard="0"
     showgrid="false"
     fit-margin-top="0"
     fit-margin-left="0"
     fit-margin-right="0"
     fit-margin-bottom="0"
     inkscape:zoom="0.75733611"
     inkscape:cx="497.13726"
     inkscape:cy="246.91811"
     inkscape:window-width="1920"
     inkscape:window-height="1017"
     inkscape:window-x="-1928"
     inkscape:window-y="1072"
     inkscape:window-maximized="1"
     inkscape:current-layer="svg708" />
  <path
     d="M 658.9,498.9 H 6 c -3.3,0 -6,-2.7 -6,-6 V 6 C 0,2.7 2.7,0 6,0 h 652.9 c 3.3,0 6,2.7 6,6 v 486.9 c 0,3.3 -2.7,6 -6,6 z"
     fill="#cfcfce"
     id="path2" />
  <path
     d="m 19,11.6 h 625.7 v 2.3 H 19 Z"
     fill="#ababab"
     id="path4" />
  <path
     d="m 124,11.6 h 16.8 v 2.3 H 124 Z"
     fill="#666766"
     id="path6" />
  <path
     d="m 200.7,11.6 h 16.8 v 2.3 h -16.8 z"
     fill="#666766"
     id="path8" />
  <path
     d="m 175.3,11.6 h 16.8 v 2.3 h -16.8 z"
     fill="#666766"
     id="path10" />
  <path
     d="m 149.5,11.6 h 16.8 v 2.3 h -16.8 z"
     fill="#666766"
     id="path12" />
  <path
     d="M 98.2,11.6 H 115 v 2.3 H 98.2 Z"
     fill="#666766"
     id="path14" />
  <path
     d="m 19,16.2 h 625.7 v 2.3 H 19 Z"
     fill="#ababab"
     id="path16" />
  <path
     d="m 124,16.2 h 16.8 v 2.3 H 124 Z"
     fill="#666766"
     id="path18" />
  <path
     d="m 200.7,16.2 h 16.8 v 2.3 h -16.8 z"
     fill="#666766"
     id="path20" />
  <path
     d="m 175.3,16.2 h 16.8 v 2.3 h -16.8 z"
     fill="#666766"
     id="path22" />
  <path
     d="m 149.5,16.2 h 16.8 v 2.3 h -16.8 z"
     fill="#666766"
     id="path24" />
  <path
     d="M 98.2,16.2 H 115 v 2.3 H 98.2 Z"
     fill="#666766"
     id="path26" />
  <path
     d="m 19,20.9 h 625.7 v 2.3 H 19 Z"
     fill="#ababab"
     id="path28" />
  <path
     d="m 124,20.9 h 16.8 v 2.3 H 124 Z"
     fill="#666766"
     id="path30" />
  <path
     d="m 200.7,20.9 h 16.8 v 2.3 h -16.8 z"
     fill="#666766"
     id="path32" />
  <path
     d="m 175.3,20.9 h 16.8 v 2.3 h -16.8 z"
     fill="#666766"
     id="path34" />
  <path
     d="m 149.5,20.9 h 16.8 v 2.3 h -16.8 z"
     fill="#666766"
     id="path36" />
  <path
     d="M 98.2,20.9 H 115 v 2.3 H 98.2 Z"
     fill="#666766"
     id="path38" />
  <path
     d="m 19,25.5 h 625.7 v 2.3 H 19 Z"
     fill="#ababab"
     id="path40" />
  <path
     d="m 124,25.5 h 16.8 v 2.3 H 124 Z"
     fill="#666766"
     id="path42" />
  <path
     d="m 200.7,25.5 h 16.8 v 2.3 h -16.8 z"
     fill="#666766"
     id="path44" />
  <path
     d="m 175.3,25.5 h 16.8 v 2.3 h -16.8 z"
     fill="#666766"
     id="path46" />
  <path
     d="m 149.5,25.5 h 16.8 v 2.3 h -16.8 z"
     fill="#666766"
     id="path48" />
  <path
     d="M 98.2,25.5 H 115 v 2.3 H 98.2 Z"
     fill="#666766"
     id="path50" />
  <path
     d="m 19,30.1 h 625.7 v 2.3 H 19 Z"
     fill="#ababab"
     id="path52" />
  <path
     d="m 124,30.1 h 16.8 v 2.3 H 124 Z"
     fill="#666766"
     id="path54" />
  <path
     d="m 200.7,30.1 h 16.8 v 2.3 h -16.8 z"
     fill="#666766"
     id="path56" />
  <path
     d="m 175.3,30.1 h 16.8 v 2.3 h -16.8 z"
     fill="#666766"
     id="path58" />
  <path
     d="m 149.5,30.1 h 16.8 v 2.3 h -16.8 z"
     fill="#666766"
     id="path60" />
  <path
     d="M 98.2,30.1 H 115 v 2.3 H 98.2 Z"
     fill="#666766"
     id="path62" />
  <path
     d="m 19,35.2 h 625.7 v 2.3 H 19 Z"
     fill="#ababab"
     id="path64" />
  <path
     d="m 124,35.2 h 16.8 v 2.3 H 124 Z"
     fill="#666766"
     id="path66" />
  <path
     d="m 200.7,35.2 h 16.8 v 2.3 h -16.8 z"
     fill="#666766"
     id="path68" />
  <path
     d="m 175.3,35.2 h 16.8 v 2.3 h -16.8 z"
     fill="#666766"
     id="path70" />
  <path
     d="m 149.5,35.2 h 16.8 v 2.3 h -16.8 z"
     fill="#666766"
     id="path72" />
  <path
     d="M 98.2,35.2 H 115 v 2.3 H 98.2 Z"
     fill="#666766"
     id="path74" />
  <path
     d="m 19,39.8 h 625.7 v 2.3 H 19 Z"
     fill="#ababab"
     id="path76" />
  <path
     d="m 124,39.8 h 16.8 v 2.3 H 124 Z"
     fill="#666766"
     id="path78" />
  <path
     d="m 200.7,39.8 h 16.8 v 2.3 h -16.8 z"
     fill="#666766"
     id="path80" />
  <path
     d="m 175.3,39.8 h 16.8 v 2.3 h -16.8 z"
     fill="#666766"
     id="path82" />
  <path
     d="m 149.5,39.8 h 16.8 v 2.3 h -16.8 z"
     fill="#666766"
     id="path84" />
  <path
     d="M 98.2,39.8 H 115 v 2.3 H 98.2 Z"
     fill="#666766"
     id="path86" />
  <path
     d="m 19,45 h 625.7 v 2.3 H 19 Z"
     fill="#ababab"
     id="path88" />
  <path
     d="m 124,45 h 16.8 v 2.3 H 124 Z"
     fill="#666766"
     id="path90" />
  <path
     d="m 200.7,45 h 16.8 v 2.3 h -16.8 z"
     fill="#666766"
     id="path92" />
  <path
     d="m 175.3,45 h 16.8 v 2.3 h -16.8 z"
     fill="#666766"
     id="path94" />
  <path
     d="m 149.5,45 h 16.8 v 2.3 h -16.8 z"
     fill="#666766"
     id="path96" />
  <path
     d="M 98.2,45 H 115 v 2.3 H 98.2 Z"
     fill="#666766"
     id="path98" />
  <path
     d="M 639.7,261.1 H 24 c -2.8,0 -5,-2.3 -5,-5 V 94.8 c 0,-2.8 2.3,-5 5,-5 h 615.7 c 2.8,0 5,2.3 5,5 v 161.3 c 0,2.8 -2.3,5 -5,5 z"
     fill="#0b0b0b"
     id="path100" />
  <path
     d="M 640.3,434.4 H 24.6 c -2.8,0 -5,-2.3 -5,-5 V 268.1 c 0,-2.8 2.3,-5 5,-5 h 615.7 c 2.8,0 5,2.3 5,5 v 161.3 c 0,2.7 -2.3,5 -5,5 z"
     fill="#0b0b0b"
     id="path102" />
  <path
     d="M 640.3,488.1 H 24.6 c -2.8,0 -5,-2.3 -5,-5 V 321.7 c 0,-2.8 2.3,-5 5,-5 h 615.7 c 2.8,0 5,2.3 5,5 V 483 c 0,2.8 -2.3,5.1 -5,5.1 z"
     fill="#282828"
     id="path104" />
  <path
     d="m 19,93.8 h 625.7 v 12.7 H 19 Z"
     fill="#39b54a"
     id="path106" />
  <path
     d="m 47.3,133.8 h 322 v 2 h -322 z"
     fill="#ed1c24"
     id="path108" />
  <path
     d="m 47.3,144.4 h 322 v 100.7 h -322 z"
     fill="#787878"
     id="path110" />
  <path
     d="m 262.5,126.5 c 1,-1 1.6,-2.2 2.3,-3.3 1.9,-3 3.7,-6 5.5,-9.1 2.2,-3.5 5.2,-4.8 9.3,-4.1 0.5,0.1 1.2,0.2 1.1,1 -0.1,0.7 0,1.6 -1,2 -0.9,0.3 -1.7,0.3 -2.6,0.3 -0.9,0 -1.6,0.3 -2.1,1.1 -3.4,5.3 -6.9,10.7 -10.2,16 -0.6,1 -1.3,1.3 -2.4,1.3 -4.2,-0.1 -4.2,0 -4.2,-4.2 0,-5.2 0,-10.3 0,-15.5 0,-1.8 0.3,-2 2,-1.8 2.2,0.2 2.2,0.2 2.2,2.5 -0.1,3.3 -0.1,6.5 -0.2,9.8 -0.1,1.3 0.1,2.5 0.3,4 z"
     fill="#ffffff"
     id="path112" />
  <path
     d="m 177,128.4 c -0.2,0.9 -0.4,1.9 -0.6,2.9 -0.2,1 -1,1.1 -1.8,1.1 -4.1,0.1 -8.2,-2.7 -9.1,-6.4 -0.9,-3.7 1.4,-8.2 5.2,-10 5.2,-2.5 11.2,-0.3 12.8,4.7 0.5,1.6 0.4,3.2 0.1,4.8 -0.4,1.7 -0.9,3.4 -1.3,5.1 -0.2,1.2 -0.8,1.6 -2,1.5 -0.4,-0.1 -0.9,0 -1.3,0 -1.1,0.1 -1.3,-0.4 -1,-1.4 0.6,-2.1 1,-4.2 1.6,-6.3 0.5,-1.9 0.1,-3.5 -1.4,-4.7 -1.6,-1.3 -3.5,-1.4 -5.3,-0.6 -2.5,1.1 -3.7,3.8 -2.9,6.4 0.7,2.3 3.1,3.5 5.8,2.9 0.3,-0.2 0.7,-0.4 1.2,0 z"
     fill="#ffffff"
     id="path114" />
  <path
     d="m 241.3,127.1 c 1.9,1.6 3.9,0.9 5.8,0.3 0.6,2.8 -0.5,4.3 -3.2,4.3 -3.9,0 -7.2,-2.2 -8.3,-5.4 -1.2,-3.5 0.1,-7.3 3.2,-9.8 4.8,-3.7 11.3,-2.7 14,2.3 1,1.7 0.8,2.1 -0.9,2.9 -3.2,1.5 -6.4,3 -9.5,4.5 -0.4,0.2 -0.8,0.4 -1.1,0.9 z m -1.6,-3.2 c 2.9,-1.3 5.7,-2.4 8.4,-4 -1.4,-1.6 -3.7,-2 -5.7,-1.1 -1.9,0.9 -3,2.9 -2.7,5.1 z"
     fill="#ffffff"
     id="path116" />
  <path
     d="m 206.3,127.1 c 1.8,1.5 3.8,0.9 5.8,0.2 0,1.5 -0.5,2.7 -0.9,3.9 -0.1,0.4 -0.6,0.5 -1,0.6 -5.5,0.9 -10.8,-3.2 -10.4,-8.8 0.4,-5.2 6,-9.3 11.3,-8.4 3.2,0.5 5.5,2.3 6.9,5.3 0.5,1 0.3,1.5 -0.7,1.9 -3.3,1.4 -6.5,2.8 -9.8,4.3 -0.3,0.3 -0.9,0.4 -1.2,1 z m -1.8,-3.3 c 1.7,-0.3 7.5,-2.9 8.8,-3.9 -1.2,-1.6 -3.5,-2.2 -5.6,-1.3 -2.1,0.9 -3.4,3 -3.2,5.2 z"
     fill="#ffffff"
     id="path118" />
  <path
     d="m 311.5,121.8 c 0.1,5.6 -4.3,10.1 -8.7,10.2 -2.5,0.1 -4.8,0 -6.8,-1.6 -3.9,-3.2 -4.3,-7.5 -1.2,-11.5 3.4,-4.3 9,-5.2 13.4,-2.1 2.1,1.5 3.2,3.6 3.3,5 z m -9.8,7 c 3,0 5.6,-2.5 5.6,-5.3 0,-2.5 -2.4,-4.7 -5.1,-4.7 -2.8,0.1 -5.4,2.7 -5.4,5.5 0.1,2.5 2.2,4.5 4.9,4.5 z"
     fill="#ffffff"
     id="path120" />
  <path
     d="m 320.5,119 c -2.3,0 -2.2,0 -2.8,2.4 -0.8,3.1 -1.7,6.2 -2.6,9.3 -0.1,0.5 -0.3,1.1 -1,1.1 -1,-0.1 -2,0.3 -2.9,-0.3 -0.3,-0.2 -0.2,-0.7 -0.1,-1.1 1,-4.6 2.4,-9.1 3.6,-13.6 0.2,-0.8 0.7,-1.2 1.6,-1.2 2.3,0.1 4.6,0 6.8,0 3.2,0 4.5,1.5 4,4.7 -0.7,3.6 -1.7,7.1 -2.7,10.6 -0.3,1 -1,1 -1.9,1 -2.7,-0.2 -2.7,-0.1 -1.9,-2.8 0.7,-2.4 1.3,-4.7 1.9,-7.1 0.8,-2.8 0.6,-3 -2,-3 z"
     fill="#ffffff"
     id="path122" />
  <path
     d="m 154.4,122.2 c -0.3,-6.5 4.9,-10.8 9.9,-11.8 1.7,-0.3 3.3,-0.4 5,-0.4 1.1,0 1.5,0.3 1.3,1.5 -0.5,2.5 -0.5,2.6 -3.1,2.6 -2.4,0 -4.5,0.5 -6.3,2.1 -2.4,2.1 -3.1,4.7 -2.3,7.7 0.7,2.7 2.9,3.7 5.3,4.2 1.1,0.2 1.3,0.5 1,1.5 -0.9,3.3 -0.5,3.5 -4.2,2.3 -3.9,-1.4 -7,-5 -6.6,-9.7 z"
     fill="#ffffff"
     id="path124" />
  <path
     d="m 224.1,128.2 c -0.4,0.7 -0.5,1 -0.7,1.3 -0.7,0.8 -0.8,2.3 -2.2,2 -1.6,-0.3 -2.7,-1.4 -3.2,-3 -0.3,-0.9 -0.2,-1.8 0,-2.7 1.2,-4.9 2.3,-9.8 3.5,-14.7 0.2,-0.8 0.6,-1.4 1.7,-1.3 0.8,0.1 1.7,0 2.6,0 0.4,1.4 -0.2,2.6 -0.5,3.8 -0.3,1 -0.1,1.4 0.9,1.4 0.6,0 1.5,-0.3 1.5,0.9 0,1.6 -0.7,3.1 -1.6,2.9 -1.8,-0.2 -2.4,0.6 -2.6,2.3 -0.2,1.6 -0.7,3.1 -1.1,4.7 -0.4,1.2 -0.7,2.5 1.7,2.4 z"
     fill="#ffffff"
     id="path126" />
  <path
     d="m 234.8,109.7 c 0,1.8 -0.9,3.3 -0.8,4.9 0.1,0.1 0.2,0.2 0.3,0.2 2.4,0.3 2.7,0.9 1.7,3.2 -0.4,0.8 -1.1,0.8 -1.8,0.7 -1,-0.1 -1.5,0.2 -1.7,1.4 -0.3,1.9 -0.9,3.8 -1.4,5.7 -0.3,1.2 -0.3,2.4 1.6,2.6 -0.6,1.3 -1,2.9 -2.3,3.1 -1.4,0.3 -2.5,-0.8 -3.2,-2 -0.6,-1 -0.6,-2.1 -0.4,-3.2 1,-5.2 2.4,-10.3 3.8,-15.4 0.2,-0.7 0.6,-1.1 1.4,-1.1 0.8,-0.1 1.7,-0.1 2.8,-0.1 z"
     fill="#ffffff"
     id="path128" />
  <path
     d="m 189.8,131.9 c 0.2,-1.7 0.1,-3.4 1.8,-4.6 1.1,-0.8 1.2,-2.4 1.5,-3.7 0.6,-2.4 1,-4.8 2.9,-6.6 1.1,-1.1 2.4,-1.9 4,-2 0.9,-0.1 1.3,0.3 1,1.3 -0.4,1.4 -0.5,2.9 -2,3.7 -0.6,0.3 -0.7,1.1 -0.9,1.7 -0.4,1.6 -0.8,3.3 -1.2,5 -0.8,3.3 -3.8,5.6 -7.1,5.2 z"
     fill="#ffffff"
     id="path130" />
  <path
     d="m 184,132 c -0.5,0.1 -1.1,-0.2 -0.9,-0.8 0.3,-1.3 0.2,-2.8 1.5,-3.7 1.3,-0.9 1.3,-2.4 1.7,-3.7 0.5,-1.7 0.7,-3.5 1.6,-5.1 1.1,-2 2.7,-3.2 5,-3.7 1,-0.2 1.5,0.1 1.2,1.2 -0.3,1.4 -0.3,2.9 -1.8,3.7 -0.5,0.3 -0.7,1 -0.8,1.6 -0.4,1.7 -0.9,3.5 -1.3,5.2 -0.9,2.9 -3.6,5.3 -6.2,5.3 z"
     fill="#ffffff"
     id="path132" />
  <path
     d="m 286.7,115.1 c 1.5,0 1.9,0.3 1.4,1.5 -0.5,1.3 -1.1,2.4 -2.1,3.5 -1.4,1.5 -1.4,3.8 -2,5.7 -0.8,3 -2.4,5.2 -5.5,6 -1.5,0.4 -1.8,0 -1.5,-1.4 0.3,-1.2 0.5,-2.4 1.8,-3.1 0.8,-0.4 0.8,-1.5 1.1,-2.4 0.6,-2.2 1,-4.6 2.2,-6.6 1.1,-1.8 2.8,-2.8 4.6,-3.2 z"
     fill="#ffffff"
     id="path134" />
  <path
     d="m 287.7,131.9 c -0.4,0 -0.8,-0.1 -1.2,-0.1 -0.9,-0.1 -1,-0.4 -0.8,-1.3 1.2,-4.6 2.3,-9.2 3.4,-13.8 0.2,-0.8 0.8,-1 1.4,-1.1 0.3,-0.1 0.6,-0.1 0.9,-0.1 2.4,-0.1 2.6,0.1 1.9,2.5 -1.1,4.1 -2.2,8.2 -3.2,12.3 -0.4,1.3 -1.2,1.7 -2.4,1.6 z"
     fill="#ffffff"
     id="path136" />
  <path
     d="m 279.3,115.5 c 0,2.1 -0.8,4 -1.3,6 -0.6,2.9 -1.5,5.7 -2.2,8.6 -0.1,0.6 -0.1,1.4 -0.8,1.5 -1.1,0.2 -2.2,0.3 -3.2,-0.1 -0.6,-0.3 -0.3,-1.1 -0.1,-1.7 1.1,-3.9 2,-7.9 2.9,-11.9 0.6,-2.7 1.3,-3 4.7,-2.4 z"
     fill="#ffffff"
     id="path138" />
  <path
     d="m 290.1,114.2 c 0.2,-2.5 2.1,-3.7 4.2,-2.8 0.5,0.2 0.5,0.6 0.5,1.1 -0.1,0.8 -0.1,1.8 -1.1,2 -1.2,0.2 -2.4,0.3 -3.6,-0.3 z"
     fill="#ffffff"
     id="path140" />
  <path
     d="m 112.3,129.2 c -0.3,1.4 -0.6,2.6 -0.8,3.8 -0.1,1.1 -0.8,1.4 -2.2,1 1,-4.6 2,-9.2 3,-13.8 0.8,0 1.5,-0.3 2.1,0.4 1.6,-0.9 3.3,-1.3 5.2,-1.3 4.1,0.1 6.5,2.2 6,5.6 -0.6,4 -6.1,6.8 -10.8,5.6 -0.8,-0.3 -1.6,-0.8 -2.5,-1.3 z m 7,-8.7 c -2.1,-0.1 -5.6,1.8 -6.1,4.6 -0.5,2.8 2.4,4.9 5.7,4 2.3,-0.6 3.9,-1.9 4.6,-3.9 0.8,-2.4 -1.3,-4.7 -4.2,-4.7 z"
     fill="#ed1c24"
     id="path142" />
  <path
     d="m 139,128.1 c -2,2.5 -7.4,3.4 -10.3,1.7 -2.3,-1.4 -3,-4.1 -1.6,-6.5 1.7,-3 5.8,-4.7 9.8,-4 1.3,0.3 2.4,0.8 3.2,1.9 -3.4,2.4 -6.8,4.7 -10.1,7.1 1.1,1 2.7,1.3 4.5,0.8 0.7,-0.2 1.3,-0.5 1.9,-0.9 1.1,-0.7 1.2,-0.7 2.6,-0.1 z M 128.9,127 c 0.1,-0.1 0.3,-0.1 0.4,-0.2 2.7,-1.8 5.3,-3.7 8,-5.6 -1.8,-1.1 -3.9,-1 -6.1,0.3 -2.3,1.5 -3.3,3.7 -2.3,5.5 z"
     fill="#ed1c24"
     id="path144" />
  <path
     d="m 98.3,118.7 c -0.8,0.4 -1.3,0.6 -1.9,-0.3 -0.4,-0.7 -1.4,-0.8 -2.3,-0.5 -1,0.4 -1.7,1 -1.8,1.9 -0.1,0.9 0.6,1.4 1.4,1.8 0.4,0.2 0.8,0.3 1.2,0.5 2.5,0.9 3.7,2.4 3.3,4.3 -0.5,2.1 -2.7,3.9 -5.2,4 -1.5,0.1 -3,0.1 -4.1,-1 -0.5,-0.4 -0.8,-0.9 -1,-1.5 -0.3,-1 0,-1.2 1.3,-1.2 0,0 0.1,0.1 0.1,0.1 0.3,1.6 1.2,2.4 2.6,2.6 1.5,0.2 3.4,-0.7 4.2,-2 0.9,-1.4 0.6,-2.7 -1,-3.8 -0.6,-0.4 -1.2,-0.6 -1.9,-0.9 -2,-0.7 -2.9,-1.8 -2.5,-3.4 0.4,-1.6 2.1,-2.7 4.1,-2.8 2,0 3,0.5 3.4,1.7 0.2,0.3 0.1,0.4 0.1,0.5 z"
     fill="#ed1c24"
     id="path146" />
  <path
     d="m 100.5,120.2 h 2 c -0.3,1.5 -0.6,3.1 -0.9,4.6 -0.1,0.6 -0.3,1.2 -0.4,1.7 -0.2,1 0.2,1.8 1.2,2.4 0.9,0.6 2,0.6 3,0.2 1.4,-0.6 2.4,-1.5 2.7,-2.8 0.4,-2 0.9,-3.9 1.3,-5.9 0.6,-0.2 1.2,-0.1 2,-0.1 -0.6,2.5 -0.8,5 -1.8,7.3 -1.1,2.6 -5.4,3.9 -8.4,2.6 -1.5,-0.6 -2.2,-1.7 -2,-3 0.3,-2.4 0.8,-4.7 1.3,-7 z"
     fill="#ed1c24"
     id="path148" />
  <path
     d="m 141.7,120.4 h 1.7 c 0.4,0.2 0,0.5 0.3,0.7 1.1,-0.5 2.2,-1.2 3.7,-0.9 0,0.6 0,1 -1,1.4 -2.2,0.7 -3.5,2.1 -3.9,4 -0.4,1.6 -0.7,3.2 -1.1,4.9 -0.7,0.2 -1.2,0.1 -2,0.1 0.8,-3.5 1.6,-6.8 2.3,-10.2 z"
     fill="#ed1c24"
     id="path150" />
  <path
     d="m 113.2,128.3 c -0.3,1.4 -0.6,2.6 -0.8,3.8 -0.1,1.1 -0.8,1.4 -2.2,1 1,-4.6 2,-9.2 3,-13.8 0.8,0 1.5,-0.3 2.1,0.4 1.6,-0.9 3.3,-1.3 5.2,-1.3 4.1,0.1 6.5,2.2 6,5.6 -0.6,4 -6.1,6.8 -10.8,5.6 -0.9,-0.3 -1.6,-0.7 -2.5,-1.3 z m 6.9,-8.6 c -2.1,-0.1 -5.6,1.8 -6.1,4.6 -0.5,2.8 2.4,4.9 5.7,4 2.3,-0.6 3.9,-1.9 4.6,-3.9 0.8,-2.4 -1.2,-4.8 -4.2,-4.7 z"
     fill="#fbc3b6"
     id="path152" />
  <path
     d="m 139.8,127.3 c -2,2.5 -7.4,3.4 -10.3,1.7 -2.3,-1.4 -3,-4.1 -1.6,-6.5 1.7,-3 5.8,-4.7 9.8,-4 1.3,0.3 2.4,0.8 3.2,1.9 -3.4,2.4 -6.8,4.7 -10.1,7.1 1.1,1 2.7,1.3 4.5,0.8 0.7,-0.2 1.3,-0.5 1.9,-0.9 1.2,-0.7 1.2,-0.7 2.6,-0.1 z m -10.1,-1.1 c 0.1,-0.1 0.3,-0.1 0.4,-0.2 2.7,-1.8 5.3,-3.7 8,-5.6 -1.8,-1.1 -3.9,-1 -6.1,0.3 -2.3,1.5 -3.2,3.6 -2.3,5.5 z"
     fill="#fbc3b6"
     id="path154" />
  <path
     d="m 99.2,117.8 c -0.8,0.4 -1.3,0.6 -1.9,-0.3 -0.4,-0.7 -1.4,-0.8 -2.3,-0.5 -1,0.4 -1.7,1 -1.8,1.9 -0.1,0.9 0.6,1.4 1.4,1.8 0.4,0.2 0.8,0.3 1.2,0.5 2.5,0.9 3.7,2.4 3.3,4.3 -0.5,2.1 -2.7,3.9 -5.2,4 -1.5,0.1 -3,0.1 -4.1,-1 -0.5,-0.4 -0.8,-0.9 -1,-1.5 -0.3,-1 0,-1.2 1.3,-1.2 0,0 0.1,0.1 0.1,0.1 0.3,1.6 1.2,2.4 2.6,2.6 1.5,0.2 3.4,-0.7 4.2,-2 0.9,-1.4 0.6,-2.7 -1,-3.8 -0.6,-0.4 -1.2,-0.6 -1.9,-0.9 -2,-0.7 -2.9,-1.8 -2.5,-3.4 0.4,-1.6 2.1,-2.7 4.1,-2.8 2,0 3,0.5 3.4,1.7 0.1,0.3 0.1,0.4 0.1,0.5 z"
     fill="#fbc3b6"
     id="path156" />
  <path
     d="m 101.3,119.3 h 2 c -0.3,1.5 -0.6,3.1 -0.9,4.6 -0.1,0.6 -0.3,1.2 -0.4,1.7 -0.2,1 0.2,1.8 1.2,2.4 0.9,0.6 2,0.6 3,0.2 1.4,-0.6 2.4,-1.5 2.7,-2.8 0.4,-2 0.9,-3.9 1.3,-5.9 0.6,-0.2 1.2,-0.1 2,-0.1 -0.6,2.5 -0.8,5 -1.8,7.3 -1.1,2.6 -5.4,3.9 -8.4,2.6 -1.5,-0.6 -2.2,-1.7 -2,-3 0.3,-2.4 0.8,-4.7 1.3,-7 z"
     fill="#fbc3b6"
     id="path158" />
  <path
     d="m 142.5,119.5 h 1.7 c 0.4,0.2 0,0.5 0.3,0.7 1.1,-0.5 2.2,-1.2 3.7,-0.9 0,0.6 0,1 -1,1.4 -2.2,0.7 -3.5,2.1 -3.9,4 -0.4,1.6 -0.7,3.2 -1.1,4.9 -0.7,0.2 -1.2,0.1 -2,0.1 0.9,-3.4 1.6,-6.8 2.3,-10.2 z"
     fill="#fbc3b6"
     id="path160" />
  <path
     d="m 135.5,95.9 h 6.7 v 1.9 H 138 v 1.4 h 3.9 V 101 H 138 v 1.7 h 4.3 v 2 h -6.8 z"
     id="path162" />
  <path
     d="m 143.7,95.9 h 4.2 c 0.9,0 1.6,0.2 2,0.7 0.5,0.5 0.7,1.1 0.7,2 0,0.9 -0.2,1.6 -0.7,2.1 -0.5,0.5 -1.2,0.7 -2.2,0.7 h -1.4 v 3.2 h -2.5 v -8.7 z m 2.5,3.7 h 0.6 c 0.5,0 0.8,-0.1 1,-0.3 0.2,-0.2 0.3,-0.4 0.3,-0.7 0,-0.3 -0.1,-0.5 -0.3,-0.7 -0.2,-0.2 -0.5,-0.3 -1,-0.3 h -0.7 v 2 z"
     id="path164" />
  <path
     d="m 151.6,100.3 c 0,-1.4 0.4,-2.5 1.1,-3.3 0.7,-0.8 1.8,-1.2 3.1,-1.2 1.3,0 2.4,0.4 3.1,1.2 0.7,0.8 1.1,1.9 1.1,3.3 0,1 -0.2,1.9 -0.5,2.5 -0.3,0.7 -0.8,1.2 -1.4,1.5 -0.6,0.4 -1.4,0.5 -2.2,0.5 -0.9,0 -1.7,-0.2 -2.3,-0.5 -0.6,-0.3 -1.1,-0.8 -1.5,-1.5 -0.4,-0.7 -0.5,-1.5 -0.5,-2.5 z m 2.5,0 c 0,0.9 0.2,1.5 0.5,1.9 0.3,0.4 0.7,0.6 1.2,0.6 0.5,0 1,-0.2 1.2,-0.6 0.3,-0.4 0.4,-1.1 0.4,-2 0,-0.8 -0.2,-1.4 -0.5,-1.8 -0.3,-0.4 -0.7,-0.6 -1.2,-0.6 -0.5,0 -0.9,0.2 -1.2,0.6 -0.3,0.3 -0.4,1 -0.4,1.9 z"
     id="path166" />
  <path
     d="m 166.7,101 2.2,0.7 c -0.1,0.7 -0.4,1.2 -0.7,1.7 -0.3,0.4 -0.7,0.8 -1.2,1 -0.5,0.2 -1.1,0.3 -1.8,0.3 -0.9,0 -1.6,-0.1 -2.2,-0.4 -0.6,-0.3 -1,-0.8 -1.4,-1.5 -0.4,-0.7 -0.6,-1.6 -0.6,-2.7 0,-1.4 0.4,-2.5 1.1,-3.3 0.7,-0.8 1.7,-1.2 3,-1.2 1,0 1.8,0.2 2.4,0.7 0.6,0.4 1,1.1 1.3,2 l -2.2,0.5 c -0.1,-0.3 -0.2,-0.5 -0.2,-0.6 -0.1,-0.2 -0.3,-0.4 -0.5,-0.5 -0.2,-0.1 -0.4,-0.2 -0.7,-0.2 -0.6,0 -1,0.2 -1.3,0.7 -0.2,0.4 -0.3,0.9 -0.3,1.7 0,1 0.1,1.6 0.4,2 0.3,0.4 0.7,0.5 1.1,0.5 0.5,0 0.8,-0.1 1.1,-0.4 0.3,-0.3 0.4,-0.4 0.5,-1 z"
     id="path168" />
  <path
     d="m 170.1,95.9 h 2.5 v 3 h 2.7 v -3 h 2.5 v 8.7 h -2.5 v -3.5 h -2.7 v 3.5 h -2.5 z"
     id="path170" />
  <path
     d="m 182.7,95.9 h 7.6 V 98 h -2.5 v 6.6 h -2.5 V 98 h -2.5 v -2.1 z"
     id="path172" />
  <path
     d="m 190.6,95.9 h 2.6 l 1.8,6.3 1.8,-6.3 h 2.5 l -3,8.7 h -2.7 z"
     id="path174" />
  <path
     d="m 208,101.4 v -1.8 h 3.9 v 3.7 c -0.7,0.5 -1.4,0.9 -2,1.1 -0.6,0.2 -1.2,0.3 -2,0.3 -1,0 -1.7,-0.2 -2.3,-0.5 -0.6,-0.4 -1.1,-0.9 -1.4,-1.6 -0.3,-0.7 -0.5,-1.5 -0.5,-2.4 0,-1 0.2,-1.8 0.5,-2.5 0.4,-0.7 0.9,-1.2 1.6,-1.6 0.5,-0.3 1.3,-0.4 2.2,-0.4 0.9,0 1.6,0.1 2,0.3 0.4,0.2 0.8,0.4 1.1,0.8 0.3,0.4 0.5,0.8 0.7,1.4 l -2.4,0.5 c -0.1,-0.3 -0.3,-0.6 -0.5,-0.8 -0.2,-0.2 -0.5,-0.3 -0.9,-0.3 -0.5,0 -1,0.2 -1.3,0.6 -0.3,0.4 -0.5,1.1 -0.5,1.9 0,0.9 0.2,1.6 0.5,2 0.3,0.4 0.8,0.6 1.4,0.6 0.3,0 0.5,0 0.8,-0.1 0.3,-0.1 0.5,-0.2 0.9,-0.4 v -0.8 z"
     id="path176" />
  <path
     d="m 218.4,103.2 h -2.8 l -0.4,1.4 h -2.6 l 3,-8.7 h 2.7 l 3,8.7 h -2.6 z m -0.6,-1.9 -0.9,-3.1 -0.9,3.1 z"
     id="path178" />
  <path
     d="m 222.1,95.9 h 3.3 l 1.3,5.3 1.3,-5.3 h 3.3 v 8.7 h -2 V 98 l -1.6,6.6 h -1.9 L 224.2,98 v 6.6 h -2 v -8.7 z"
     id="path180" />
  <path
     d="m 232.8,95.9 h 6.7 v 1.9 h -4.2 v 1.4 h 3.9 v 1.8 h -3.9 v 1.7 h 4.3 v 2 h -6.8 z"
     id="path182" />
  <path
     d="m 244.3,101.7 2.4,-0.2 c 0.1,0.4 0.2,0.7 0.3,1 0.3,0.4 0.6,0.5 1.1,0.5 0.4,0 0.6,-0.1 0.8,-0.3 0.2,-0.2 0.3,-0.4 0.3,-0.6 0,-0.2 -0.1,-0.4 -0.3,-0.6 -0.2,-0.2 -0.6,-0.3 -1.3,-0.5 -1.1,-0.3 -1.9,-0.6 -2.3,-1.1 -0.5,-0.4 -0.7,-1 -0.7,-1.7 0,-0.4 0.1,-0.9 0.4,-1.3 0.2,-0.4 0.6,-0.7 1.1,-0.9 0.5,-0.2 1.1,-0.3 2,-0.3 1,0 1.8,0.2 2.4,0.6 0.5,0.4 0.9,1.1 1,2 l -2.4,0.1 c -0.1,-0.4 -0.2,-0.7 -0.4,-0.9 -0.2,-0.2 -0.5,-0.3 -0.8,-0.3 -0.3,0 -0.5,0.1 -0.7,0.2 -0.1,0.1 -0.2,0.3 -0.2,0.5 0,0.1 0.1,0.3 0.2,0.4 0.1,0.1 0.4,0.2 0.8,0.3 1.1,0.3 1.9,0.5 2.3,0.8 0.4,0.3 0.8,0.6 1,1 0.2,0.4 0.3,0.8 0.3,1.3 0,0.6 -0.1,1.1 -0.4,1.5 -0.3,0.5 -0.7,0.8 -1.2,1.1 -0.5,0.2 -1.2,0.4 -1.9,0.4 -1.4,0 -2.3,-0.3 -2.9,-0.9 -0.5,-0.5 -0.8,-1.2 -0.9,-2.1 z"
     id="path184" />
  <path
     d="m 252.1,95.9 h 2.8 l 1.6,2.9 1.6,-2.9 h 2.8 l -3.1,5.1 v 3.6 h -2.5 V 101 Z"
     id="path186" />
  <path
     d="m 260.8,101.7 2.4,-0.2 c 0.1,0.4 0.2,0.7 0.3,1 0.3,0.4 0.6,0.5 1.1,0.5 0.4,0 0.6,-0.1 0.8,-0.3 0.2,-0.2 0.3,-0.4 0.3,-0.6 0,-0.2 -0.1,-0.4 -0.3,-0.6 -0.2,-0.2 -0.6,-0.3 -1.3,-0.5 -1.1,-0.3 -1.9,-0.6 -2.3,-1.1 -0.5,-0.4 -0.7,-1 -0.7,-1.7 0,-0.4 0.1,-0.9 0.4,-1.3 0.2,-0.4 0.6,-0.7 1.1,-0.9 0.5,-0.2 1.1,-0.3 2,-0.3 1,0 1.8,0.2 2.4,0.6 0.5,0.4 0.9,1.1 1,2 l -2.4,0.1 c -0.1,-0.4 -0.2,-0.7 -0.4,-0.9 -0.2,-0.2 -0.5,-0.3 -0.8,-0.3 -0.3,0 -0.5,0.1 -0.7,0.2 -0.1,0.1 -0.2,0.3 -0.2,0.5 0,0.1 0.1,0.3 0.2,0.4 0.1,0.1 0.4,0.2 0.8,0.3 1.1,0.3 1.9,0.5 2.3,0.8 0.4,0.3 0.8,0.6 1,1 0.2,0.4 0.3,0.8 0.3,1.3 0,0.6 -0.1,1.1 -0.4,1.5 -0.3,0.5 -0.7,0.8 -1.2,1.1 -0.5,0.2 -1.2,0.4 -1.9,0.4 -1.4,0 -2.3,-0.3 -2.9,-0.9 -0.5,-0.5 -0.8,-1.2 -0.9,-2.1 z"
     id="path188" />
  <path
     d="m 268.8,95.9 h 7.6 V 98 h -2.5 v 6.6 h -2.5 V 98 h -2.5 v -2.1 z"
     id="path190" />
  <path
     d="m 277.5,95.9 h 6.7 v 1.9 H 280 v 1.4 h 3.9 V 101 H 280 v 1.7 h 4.3 v 2 h -6.8 z"
     id="path192" />
  <path
     d="m 285.7,95.9 h 3.3 l 1.3,5.3 1.3,-5.3 h 3.3 v 8.7 h -2 V 98 l -1.6,6.6 h -1.9 L 287.8,98 v 6.6 h -2 v -8.7 z"
     id="path194" />
  <path
     d="M 494.7,111.1 H 614 V 249.5 H 494.7 Z"
     fill="#cfcfce"
     id="path196" />
  <path
     d="m 392.7,118.4 h 66 v 29.4 h -66 z"
     fill="#999999"
     id="path198" />
  <path
     d="m 392.7,171.8 h 66 v 26.7 h -66 z"
     fill="#999999"
     id="path200" />
  <path
     d="m 392.7,213.1 h 66 v 26.7 h -66 z"
     fill="#999999"
     id="path202" />
  <path
     d="m 540.3,102.4 1.8,-0.1 c 0,0.3 0.1,0.6 0.2,0.7 0.2,0.3 0.5,0.4 0.8,0.4 0.3,0 0.5,-0.1 0.6,-0.2 0.1,-0.1 0.2,-0.3 0.2,-0.5 0,-0.2 -0.1,-0.3 -0.2,-0.5 -0.1,-0.1 -0.5,-0.3 -1,-0.4 -0.8,-0.2 -1.4,-0.5 -1.8,-0.8 -0.4,-0.3 -0.5,-0.8 -0.5,-1.3 0,-0.3 0.1,-0.7 0.3,-1 0.2,-0.3 0.5,-0.5 0.8,-0.7 0.4,-0.2 0.9,-0.3 1.5,-0.3 0.8,0 1.4,0.2 1.8,0.5 0.4,0.3 0.7,0.8 0.7,1.5 l -1.8,0.1 c 0,-0.3 -0.1,-0.5 -0.3,-0.6 -0.2,-0.1 -0.4,-0.2 -0.6,-0.2 -0.2,0 -0.4,0.1 -0.5,0.2 -0.1,0.1 -0.2,0.2 -0.2,0.4 0,0.1 0,0.2 0.1,0.3 0.1,0.1 0.3,0.2 0.6,0.2 0.8,0.2 1.4,0.4 1.8,0.6 0.4,0.2 0.6,0.4 0.8,0.7 0.2,0.3 0.2,0.6 0.2,1 0,0.4 -0.1,0.8 -0.3,1.2 -0.2,0.4 -0.5,0.6 -0.9,0.8 -0.4,0.2 -0.9,0.3 -1.5,0.3 -1,0 -1.8,-0.2 -2.2,-0.6 -0.1,-0.5 -0.4,-1 -0.4,-1.7 z"
     id="path204" />
  <path
     d="m 546.8,98 h 5.1 v 1.4 h -3.2 v 1 h 2.9 v 1.3 h -2.9 v 1.3 h 3.3 v 1.5 h -5.2 z"
     id="path206" />
  <path
     d="m 553,98 h 1.9 v 5 h 3 v 1.6 H 553 Z"
     id="path208" />
  <path
     d="m 558.7,98 h 5.1 v 1.4 h -3.2 v 1 h 2.9 v 1.3 h -2.9 v 1.3 h 3.3 v 1.5 h -5.2 z"
     id="path210" />
  <path
     d="m 569,101.9 1.7,0.5 c -0.1,0.5 -0.3,0.9 -0.5,1.3 -0.2,0.3 -0.5,0.6 -0.9,0.8 -0.4,0.2 -0.8,0.3 -1.4,0.3 -0.7,0 -1.2,-0.1 -1.6,-0.3 -0.4,-0.2 -0.8,-0.6 -1.1,-1.1 -0.3,-0.5 -0.5,-1.2 -0.5,-2 0,-1.1 0.3,-1.9 0.8,-2.5 0.5,-0.6 1.3,-0.9 2.3,-0.9 0.8,0 1.4,0.2 1.8,0.5 0.4,0.3 0.8,0.9 1,1.5 l -1.7,0.4 c -0.1,-0.2 -0.1,-0.3 -0.2,-0.4 -0.1,-0.2 -0.2,-0.3 -0.4,-0.4 -0.2,-0.1 -0.3,-0.1 -0.5,-0.1 -0.4,0 -0.8,0.2 -1,0.6 -0.2,0.3 -0.3,0.7 -0.3,1.3 0,0.7 0.1,1.2 0.3,1.5 0.2,0.3 0.5,0.4 0.9,0.4 0.4,0 0.6,-0.1 0.8,-0.3 0.2,-0.2 0.4,-0.7 0.5,-1.1 z"
     id="path212" />
  <path
     d="m 571.1,98 h 5.8 v 1.6 H 575 v 5 h -1.9 v -5 h -1.9 V 98 Z"
     id="path214" />
  <path
     d="m 455.7,121.4 v 23.4 h -60 v -23.4 z m 3,-3 h -66 v 29.4 h 66 z"
     fill="#e6e7e8"
     id="path216" />
  <path
     d="m 455.7,174.8 v 20.7 h -60 v -20.7 z m 3,-3 h -66 v 26.7 h 66 z"
     fill="#e6e7e8"
     id="path218" />
  <path
     d="m 455.7,216.1 v 20.7 h -60 v -20.7 z m 3,-3 h -66 v 26.7 h 66 z"
     fill="#e6e7e8"
     id="path220" />
  <path
     d="M 611,114.1 V 246.5 H 497.7 V 114.1 Z m 3,-3 H 494.7 V 249.5 H 614 Z"
     fill="#e6e7e8"
     id="path222" />
  <path
     d="m 511.3,127.4 h 21.3 v 17.3 h -21.3 z"
     fill="#545554"
     id="path224" />
  <path
     d="m 509.8,125.5 h 21.3 v 17.3 h -21.3 z"
     fill="#939598"
     id="path226" />
  <path
     d="m 546,118.4 h 15.3 v 2 H 546 Z"
     fill="#545554"
     id="path228" />
  <path
     d="m 511.3,158.5 h 21.3 v 17.3 h -21.3 z"
     fill="#545554"
     id="path230" />
  <path
     d="m 509.8,156.6 h 21.3 v 17.3 h -21.3 z"
     fill="#939598"
     id="path232" />
  <path
     d="m 511.3,189.7 h 21.3 V 207 h -21.3 z"
     fill="#545554"
     id="path234" />
  <path
     d="m 509.8,187.8 h 21.3 v 17.3 h -21.3 z"
     fill="#939598"
     id="path236" />
  <path
     d="m 511.3,221 h 21.3 v 17.3 h -21.3 z"
     fill="#545554"
     id="path238" />
  <path
     d="m 509.8,219 h 21.3 v 17.3 h -21.3 z"
     fill="#939598"
     id="path240" />
  <path
     d="m 544.5,127.4 h 21.3 v 17.3 h -21.3 z"
     fill="#545554"
     id="path242" />
  <path
     d="m 543,125.5 h 21.3 v 17.3 H 543 Z"
     fill="#939598"
     id="path244" />
  <path
     d="m 544.5,158.5 h 21.3 v 17.3 h -21.3 z"
     fill="#545554"
     id="path246" />
  <path
     d="m 543,156.6 h 21.3 v 17.3 H 543 Z"
     fill="#939598"
     id="path248" />
  <path
     d="m 544.5,189.7 h 21.3 V 207 h -21.3 z"
     fill="#545554"
     id="path250" />
  <path
     d="m 543,187.8 h 21.3 v 17.3 H 543 Z"
     fill="#939598"
     id="path252" />
  <path
     d="m 544.5,221 h 21.3 v 17.3 h -21.3 z"
     fill="#545554"
     id="path254" />
  <path
     d="m 543,219 h 21.3 v 17.3 H 543 Z"
     fill="#939598"
     id="path256" />
  <path
     d="m 579.5,127.2 h 21.3 v 17.3 h -21.3 z"
     fill="#545554"
     id="path258" />
  <path
     d="m 578,125.3 h 21.3 v 17.3 H 578 Z"
     fill="#939598"
     id="path260" />
  <path
     d="m 579.5,158.3 h 21.3 v 17.3 h -21.3 z"
     fill="#545554"
     id="path262" />
  <path
     d="m 578,156.4 h 21.3 v 17.3 H 578 Z"
     fill="#939598"
     id="path264" />
  <path
     d="m 579.5,189.6 h 21.3 v 17.3 h -21.3 z"
     fill="#545554"
     id="path266" />
  <path
     d="m 578,187.7 h 21.3 V 205 H 578 Z"
     fill="#939598"
     id="path268" />
  <path
     d="m 579.5,220.8 h 21.3 v 17.3 h -21.3 z"
     fill="#545554"
     id="path270" />
  <path
     d="m 578,218.9 h 21.3 v 17.3 H 578 Z"
     fill="#939598"
     id="path272" />
  <path
     d="m 516.6,131.2 h 7.5 v 1.3 c -0.7,0.4 -1.2,0.9 -1.6,1.4 -0.5,0.6 -1,1.3 -1.3,2 -0.2,0.6 -0.4,1.3 -0.5,2.1 h -2.6 c 0.2,-1.1 0.5,-2 1,-2.8 0.4,-0.7 1.1,-1.5 2.1,-2.4 h -4.6 z"
     fill="#ffffff"
     id="path274" />
  <path
     d="m 552.1,134.3 c -0.4,-0.2 -0.7,-0.3 -0.9,-0.5 -0.3,-0.3 -0.4,-0.6 -0.4,-0.9 0,-0.6 0.4,-1 1.1,-1.4 0.6,-0.3 1.3,-0.4 2.3,-0.4 1.2,0 2.2,0.2 2.8,0.5 0.6,0.3 0.9,0.8 0.9,1.3 0,0.3 -0.1,0.6 -0.4,0.8 -0.2,0.2 -0.5,0.4 -0.8,0.6 0.5,0.2 0.9,0.4 1.1,0.7 0.2,0.3 0.4,0.6 0.4,1 0,0.3 -0.1,0.7 -0.3,0.9 -0.2,0.2 -0.5,0.5 -0.8,0.7 -0.3,0.2 -0.7,0.3 -1.2,0.4 -0.5,0.1 -1,0.1 -1.5,0.1 -1,0 -1.7,-0.1 -2.3,-0.3 -0.5,-0.2 -0.9,-0.4 -1.2,-0.7 -0.3,-0.3 -0.4,-0.7 -0.4,-1.1 0,-0.4 0.1,-0.7 0.4,-1 0.3,-0.4 0.7,-0.6 1.2,-0.7 z m 1,1.6 c 0,0.3 0.1,0.5 0.4,0.7 0.3,0.2 0.5,0.3 0.9,0.3 0.3,0 0.6,-0.1 0.8,-0.3 0.2,-0.2 0.4,-0.4 0.4,-0.7 0,-0.3 -0.1,-0.5 -0.4,-0.7 -0.2,-0.2 -0.5,-0.3 -0.9,-0.3 -0.3,0 -0.6,0.1 -0.8,0.3 -0.2,0.2 -0.4,0.3 -0.4,0.7 z m 0.1,-2.9 c 0,0.2 0.1,0.4 0.3,0.6 0.2,0.1 0.5,0.2 0.8,0.2 0.3,0 0.5,-0.1 0.7,-0.2 0.2,-0.1 0.3,-0.3 0.3,-0.5 0,-0.2 -0.1,-0.4 -0.3,-0.6 -0.2,-0.1 -0.5,-0.2 -0.8,-0.2 -0.3,0 -0.6,0.1 -0.8,0.2 -0.2,0.1 -0.2,0.2 -0.2,0.5 z"
     fill="#ffffff"
     id="path276" />
  <path
     d="m 585.6,136.4 2.6,-0.2 c 0.1,0.3 0.2,0.4 0.3,0.6 0.2,0.1 0.4,0.2 0.6,0.2 0.4,0 0.7,-0.2 1,-0.5 0.2,-0.2 0.3,-0.7 0.4,-1.4 -0.3,0.2 -0.6,0.4 -1,0.5 -0.3,0.1 -0.7,0.2 -1.1,0.2 -0.8,0 -1.5,-0.2 -2.1,-0.6 -0.6,-0.4 -0.9,-1 -0.9,-1.6 0,-0.4 0.1,-0.9 0.4,-1.2 0.3,-0.4 0.7,-0.6 1.2,-0.8 0.5,-0.2 1.2,-0.3 1.9,-0.3 0.9,0 1.7,0.1 2.2,0.3 0.5,0.2 1,0.6 1.3,1.1 0.3,0.5 0.5,1.2 0.5,2 0,1.2 -0.4,2.1 -1.1,2.7 -0.7,0.6 -1.7,0.8 -2.9,0.8 -0.7,0 -1.3,-0.1 -1.8,-0.2 -0.4,-0.1 -0.8,-0.3 -1.1,-0.5 0,-0.5 -0.2,-0.8 -0.4,-1.1 z m 4.8,-3 c 0,-0.4 -0.1,-0.6 -0.4,-0.9 -0.3,-0.3 -0.6,-0.3 -0.9,-0.3 -0.3,0 -0.6,0.1 -0.9,0.3 -0.2,0.2 -0.3,0.5 -0.3,0.8 0,0.4 0.1,0.7 0.4,0.9 0.2,0.2 0.5,0.3 0.9,0.3 0.4,0 0.7,-0.1 0.9,-0.3 0.2,-0.2 0.3,-0.5 0.3,-0.8 z"
     fill="#ffffff"
     id="path278" />
  <path
     d="m 521,167.3 h -4.7 v -1.5 l 4.7,-4 h 2.3 v 4.1 h 1.2 v 1.4 h -1.2 v 1.3 H 521 Z m 0,-1.4 v -2.1 l -2.5,2.1 z"
     fill="#ffffff"
     id="path280" />
  <path
     d="m 551.6,161.8 h 6.1 v 1.5 h -4.2 l -0.2,1 c 0.3,-0.1 0.6,-0.2 0.9,-0.2 0.3,0 0.6,-0.1 0.8,-0.1 0.9,0 1.7,0.2 2.3,0.6 0.6,0.4 0.9,0.9 0.9,1.5 0,0.4 -0.1,0.9 -0.4,1.3 -0.3,0.4 -0.7,0.7 -1.3,0.9 -0.5,0.2 -1.2,0.3 -2.1,0.3 -0.6,0 -1.1,0 -1.6,-0.1 -0.4,-0.1 -0.8,-0.2 -1.1,-0.4 -0.3,-0.2 -0.6,-0.4 -0.7,-0.6 -0.2,-0.2 -0.3,-0.5 -0.5,-0.8 l 2.6,-0.2 c 0.1,0.3 0.2,0.5 0.4,0.7 0.2,0.2 0.5,0.2 0.8,0.2 0.4,0 0.7,-0.1 0.9,-0.3 0.2,-0.2 0.4,-0.5 0.4,-0.9 0,-0.4 -0.1,-0.7 -0.4,-0.9 -0.2,-0.2 -0.6,-0.3 -0.9,-0.3 -0.3,0 -0.5,0 -0.7,0.1 -0.2,0.1 -0.4,0.2 -0.6,0.3 l -2.2,-0.2 z"
     fill="#ffffff"
     id="path282" />
  <path
     d="m 593,163.3 -2.6,0.2 c -0.1,-0.3 -0.2,-0.4 -0.3,-0.6 -0.2,-0.1 -0.4,-0.2 -0.6,-0.2 -0.4,0 -0.7,0.2 -1,0.5 -0.2,0.2 -0.3,0.7 -0.4,1.4 0.3,-0.2 0.6,-0.4 1,-0.5 0.3,-0.1 0.7,-0.2 1.1,-0.2 0.8,0 1.5,0.2 2.1,0.6 0.6,0.4 0.9,1 0.9,1.6 0,0.4 -0.1,0.8 -0.4,1.2 -0.3,0.4 -0.7,0.6 -1.2,0.8 -0.5,0.2 -1.2,0.3 -1.9,0.3 -0.9,0 -1.7,-0.1 -2.2,-0.3 -0.6,-0.2 -1,-0.6 -1.3,-1.1 -0.3,-0.5 -0.5,-1.2 -0.5,-2 0,-1.2 0.4,-2.1 1.1,-2.7 0.7,-0.6 1.7,-0.8 2.9,-0.8 0.7,0 1.3,0.1 1.8,0.2 0.4,0.1 0.8,0.3 1.1,0.5 0,0.5 0.3,0.8 0.4,1.1 z m -4.7,3 c 0,0.4 0.1,0.6 0.4,0.9 0.3,0.3 0.6,0.3 0.9,0.3 0.3,0 0.6,-0.1 0.9,-0.3 0.3,-0.2 0.3,-0.5 0.3,-0.8 0,-0.4 -0.1,-0.7 -0.4,-0.9 -0.2,-0.2 -0.5,-0.3 -0.9,-0.3 -0.4,0 -0.7,0.1 -0.9,0.3 -0.2,0.2 -0.3,0.5 -0.3,0.8 z"
     fill="#ffffff"
     id="path284" />
  <path
     d="m 522.4,193.4 v 6.8 h -2.6 v -4.5 c -0.4,0.2 -0.8,0.4 -1.2,0.6 -0.4,0.1 -0.9,0.3 -1.5,0.4 v -1.5 c 0.9,-0.2 1.6,-0.5 2,-0.7 0.4,-0.2 0.9,-0.6 1.1,-1.1 z"
     fill="#ffffff"
     id="path286" />
  <path
     d="m 558.1,200.2 h -7.8 c 0.1,-0.6 0.4,-1.1 0.8,-1.6 0.5,-0.5 1.3,-1.1 2.5,-1.7 0.8,-0.4 1.2,-0.7 1.5,-0.9 0.2,-0.2 0.3,-0.4 0.3,-0.6 0,-0.2 -0.1,-0.4 -0.3,-0.5 -0.2,-0.1 -0.5,-0.2 -0.8,-0.2 -0.3,0 -0.6,0.1 -0.8,0.2 -0.2,0.1 -0.3,0.4 -0.4,0.8 l -2.6,-0.2 c 0.1,-0.5 0.3,-0.9 0.6,-1.2 0.3,-0.3 0.7,-0.5 1.1,-0.7 0.5,-0.2 1.2,-0.2 2,-0.2 0.9,0 1.6,0.1 2.1,0.2 0.5,0.1 0.9,0.4 1.2,0.7 0.3,0.3 0.4,0.7 0.4,1 0,0.4 -0.2,0.8 -0.5,1.2 -0.3,0.4 -0.9,0.8 -1.8,1.2 -0.5,0.3 -0.9,0.4 -1,0.5 -0.1,0.1 -0.4,0.2 -0.6,0.4 h 4 v 1.6 z"
     fill="#ffffff"
     id="path288" />
  <path
     d="m 588,195.4 -2.4,-0.3 c 0.2,-0.6 0.6,-1 1.2,-1.3 0.6,-0.3 1.4,-0.4 2.5,-0.4 1.2,0 2.1,0.2 2.6,0.5 0.5,0.3 0.8,0.7 0.8,1.2 0,0.3 -0.1,0.6 -0.3,0.8 -0.2,0.2 -0.6,0.4 -1,0.6 0.4,0.1 0.6,0.1 0.8,0.2 0.3,0.1 0.5,0.3 0.7,0.5 0.2,0.2 0.3,0.5 0.3,0.8 0,0.4 -0.1,0.8 -0.4,1.1 -0.3,0.4 -0.7,0.6 -1.2,0.8 -0.5,0.2 -1.2,0.3 -2.1,0.3 -0.8,0 -1.5,-0.1 -2,-0.2 -0.5,-0.1 -0.9,-0.4 -1.2,-0.6 -0.3,-0.3 -0.6,-0.6 -0.7,-1 l 2.6,-0.2 c 0.1,0.4 0.3,0.6 0.5,0.8 0.2,0.1 0.5,0.2 0.8,0.2 0.3,0 0.6,-0.1 0.9,-0.3 0.2,-0.2 0.3,-0.4 0.3,-0.7 0,-0.3 -0.1,-0.6 -0.3,-0.7 -0.2,-0.1 -0.5,-0.3 -0.9,-0.3 -0.2,0 -0.5,0 -0.8,0.1 l 0.1,-1.3 h 0.3 c 0.3,0 0.6,-0.1 0.8,-0.2 0.2,-0.2 0.3,-0.3 0.3,-0.6 0,-0.2 -0.1,-0.4 -0.3,-0.5 -0.2,-0.1 -0.4,-0.2 -0.7,-0.2 -0.3,0 -0.6,0.1 -0.7,0.2 -0.3,0.2 -0.4,0.4 -0.5,0.7 z"
     fill="#ffffff"
     id="path290" />
  <path
     d="m 516.5,228.2 c 0,-1.3 0.3,-2.2 1,-2.7 0.7,-0.5 1.6,-0.8 2.9,-0.8 0.6,0 1.1,0.1 1.5,0.2 0.4,0.1 0.7,0.3 1,0.4 0.3,0.2 0.5,0.4 0.6,0.6 0.1,0.2 0.3,0.4 0.4,0.7 0.2,0.5 0.3,1 0.3,1.6 0,1.2 -0.3,2.1 -0.9,2.7 -0.6,0.6 -1.6,0.8 -3,0.8 -0.8,0 -1.4,-0.1 -1.9,-0.3 -0.5,-0.2 -0.9,-0.4 -1.2,-0.8 -0.2,-0.2 -0.4,-0.6 -0.5,-1 -0.1,-0.4 -0.2,-0.9 -0.2,-1.4 z m 2.6,0 c 0,0.9 0.1,1.4 0.3,1.8 0.2,0.3 0.5,0.5 0.9,0.5 0.3,0 0.5,-0.1 0.7,-0.2 0.2,-0.1 0.3,-0.3 0.4,-0.6 0.1,-0.3 0.1,-0.7 0.1,-1.3 0,-0.9 -0.1,-1.5 -0.3,-1.8 -0.2,-0.3 -0.5,-0.5 -0.9,-0.5 -0.4,0 -0.7,0.2 -0.9,0.5 -0.2,0.1 -0.3,0.7 -0.3,1.6 z"
     fill="#ffffff"
     id="path292" />
  <path
     d="m 551.7,228.6 2,0.5 c -0.1,0.4 -0.3,0.8 -0.6,1.1 -0.3,0.3 -0.7,0.5 -1.1,0.7 -0.4,0.2 -1,0.2 -1.6,0.2 -0.8,0 -1.5,-0.1 -2,-0.3 -0.5,-0.2 -1,-0.5 -1.3,-1 -0.4,-0.5 -0.6,-1.1 -0.6,-1.8 0,-1 0.3,-1.7 1,-2.2 0.7,-0.5 1.6,-0.8 2.8,-0.8 0.9,0 1.7,0.1 2.2,0.4 0.5,0.3 0.9,0.8 1.2,1.4 l -2,0.4 c -0.1,-0.2 -0.1,-0.3 -0.2,-0.4 -0.1,-0.1 -0.3,-0.2 -0.5,-0.3 -0.2,-0.1 -0.4,-0.1 -0.6,-0.1 -0.5,0 -0.9,0.2 -1.2,0.5 -0.2,0.2 -0.3,0.6 -0.3,1.1 0,0.6 0.1,1.1 0.4,1.3 0.3,0.2 0.6,0.4 1.1,0.4 0.4,0 0.8,-0.1 1,-0.3 0,-0.2 0.2,-0.5 0.3,-0.8 z"
     fill="#ffffff"
     id="path294" />
  <path
     d="m 554.8,225.1 h 2.3 v 4.4 h 3.6 v 1.4 h -5.9 z"
     fill="#ffffff"
     id="path296" />
  <path
     d="m 582.7,225 h 5.3 v 1.3 h -3.3 v 0.9 h 3.1 v 1.2 h -3.1 v 1.2 h 3.4 v 1.3 h -5.4 z"
     fill="#ffffff"
     id="path298" />
  <path
     d="m 589.2,225 h 1.9 l 2.4,3.3 V 225 h 1.9 v 5.9 h -1.9 l -2.4,-3.2 v 3.2 h -1.9 z"
     fill="#ffffff"
     id="path300" />
  <path
     d="m 396.5,152.3 c 0,-0.9 0.3,-1.6 0.8,-2.1 0.5,-0.5 1.2,-0.8 2.1,-0.8 0.9,0 1.7,0.3 2.2,0.8 0.5,0.5 0.8,1.2 0.8,2.1 0,0.7 -0.1,1.2 -0.3,1.6 -0.2,0.4 -0.5,0.7 -1,1 -0.4,0.2 -0.9,0.4 -1.6,0.4 -0.6,0 -1.2,-0.1 -1.6,-0.3 -0.4,-0.2 -0.8,-0.5 -1,-1 -0.2,-0.5 -0.4,-1 -0.4,-1.7 z m 1.8,0 c 0,0.6 0.1,1 0.3,1.2 0.2,0.2 0.5,0.4 0.9,0.4 0.4,0 0.7,-0.1 0.9,-0.4 0.2,-0.2 0.3,-0.7 0.3,-1.3 0,-0.5 -0.1,-0.9 -0.3,-1.2 -0.2,-0.2 -0.5,-0.4 -0.9,-0.4 -0.4,0 -0.6,0.1 -0.8,0.4 -0.3,0.3 -0.4,0.7 -0.4,1.3 z"
     fill="#ffffff"
     id="path302" />
  <path
     d="m 403.3,149.5 h 4.3 v 1.2 H 405 v 1 h 2.2 v 1.1 H 405 v 2.3 h -1.7 z"
     fill="#ffffff"
     id="path304" />
  <path
     d="m 408.6,149.5 h 4.3 v 1.2 h -2.6 v 1 h 2.2 v 1.1 h -2.2 v 2.3 h -1.7 z"
     fill="#ffffff"
     id="path306" />
  <path
     d="m 442.4,152.3 c 0,-0.9 0.3,-1.6 0.8,-2.1 0.5,-0.5 1.2,-0.8 2.1,-0.8 0.9,0 1.7,0.3 2.2,0.8 0.5,0.5 0.8,1.2 0.8,2.1 0,0.7 -0.1,1.2 -0.3,1.6 -0.2,0.4 -0.5,0.7 -1,1 -0.4,0.2 -0.9,0.4 -1.6,0.4 -0.6,0 -1.2,-0.1 -1.6,-0.3 -0.4,-0.2 -0.8,-0.5 -1,-1 -0.3,-0.5 -0.4,-1 -0.4,-1.7 z m 1.8,0 c 0,0.6 0.1,1 0.3,1.2 0.2,0.2 0.5,0.4 0.9,0.4 0.4,0 0.7,-0.1 0.9,-0.4 0.2,-0.2 0.3,-0.7 0.3,-1.3 0,-0.5 -0.1,-0.9 -0.3,-1.2 -0.2,-0.2 -0.5,-0.4 -0.9,-0.4 -0.4,0 -0.6,0.1 -0.8,0.4 -0.3,0.3 -0.4,0.7 -0.4,1.3 z"
     fill="#ffffff"
     id="path308" />
  <path
     d="m 449.2,149.5 h 1.6 l 2.1,3.1 v -3.1 h 1.6 v 5.6 h -1.6 l -2.1,-3.1 v 3.1 h -1.6 z"
     fill="#ffffff"
     id="path310" />
  <path
     d="m 412.9,169.8 v -5.6 h 2.9 c 0.5,0 0.9,0 1.2,0.1 0.3,0.1 0.5,0.3 0.7,0.5 0.2,0.2 0.3,0.6 0.3,0.9 0,0.3 -0.1,0.6 -0.2,0.8 -0.1,0.2 -0.3,0.4 -0.5,0.6 -0.1,0.1 -0.4,0.2 -0.6,0.2 0.2,0.1 0.4,0.1 0.5,0.2 0.1,0 0.2,0.1 0.3,0.3 0.1,0.2 0.2,0.3 0.2,0.3 l 0.8,1.6 h -2 l -0.9,-1.7 c -0.1,-0.2 -0.2,-0.4 -0.3,-0.4 -0.1,-0.1 -0.3,-0.1 -0.4,-0.1 h -0.2 v 2.3 z m 1.8,-3.4 h 0.7 c 0.1,0 0.2,0 0.5,-0.1 0.1,0 0.2,-0.1 0.3,-0.2 0.1,-0.1 0.1,-0.2 0.1,-0.3 0,-0.2 -0.1,-0.3 -0.2,-0.4 -0.1,-0.1 -0.3,-0.1 -0.6,-0.1 h -0.8 z"
     fill="#ffffff"
     id="path312" />
  <path
     d="m 419,164.1 h 4.7 v 1.2 h -2.9 v 0.9 h 2.7 v 1.1 h -2.7 v 1.1 h 3 v 1.3 H 419 Z"
     fill="#ffffff"
     id="path314" />
  <path
     d="m 424.4,167.9 1.7,-0.1 c 0,0.3 0.1,0.5 0.2,0.6 0.2,0.2 0.4,0.3 0.8,0.3 0.2,0 0.4,-0.1 0.6,-0.2 0.1,-0.1 0.2,-0.3 0.2,-0.4 0,-0.1 -0.1,-0.3 -0.2,-0.4 -0.1,-0.1 -0.4,-0.2 -0.9,-0.3 -0.8,-0.2 -1.3,-0.4 -1.6,-0.7 -0.3,-0.3 -0.5,-0.6 -0.5,-1.1 0,-0.3 0.1,-0.6 0.3,-0.8 0.2,-0.2 0.4,-0.5 0.8,-0.6 0.3,-0.1 0.8,-0.2 1.4,-0.2 0.7,0 1.3,0.1 1.6,0.4 0.4,0.3 0.6,0.7 0.7,1.3 l -1.6,0.1 c 0,-0.3 -0.1,-0.4 -0.3,-0.6 -0.2,-0.2 -0.3,-0.2 -0.6,-0.2 -0.2,0 -0.4,0 -0.5,0.1 -0.1,0.1 -0.2,0.2 -0.2,0.3 0,0.1 0,0.2 0.1,0.2 0.1,0.1 0.3,0.1 0.6,0.2 0.8,0.2 1.3,0.3 1.6,0.5 0.3,0.2 0.6,0.4 0.7,0.6 0.1,0.2 0.2,0.5 0.2,0.8 0,0.4 -0.1,0.7 -0.3,1 -0.2,0.3 -0.5,0.5 -0.8,0.7 -0.3,0.2 -0.8,0.2 -1.4,0.2 -1,0 -1.6,-0.2 -2,-0.6 -0.3,0 -0.5,-0.5 -0.6,-1.1 z"
     fill="#ffffff"
     id="path316" />
  <path
     d="m 430.4,164.1 h 4.7 v 1.2 h -2.9 v 0.9 h 2.7 v 1.1 h -2.7 v 1.1 h 3 v 1.3 h -4.7 v -5.6 z"
     fill="#ffffff"
     id="path318" />
  <path
     d="m 435.7,164.1 h 5.3 v 1.4 h -1.8 v 4.2 h -1.7 v -4.2 h -1.8 z"
     fill="#ffffff"
     id="path320" />
  <path
     d="m 411.9,204.8 h 2.9 c 0.6,0 1.1,0.1 1.4,0.4 0.3,0.3 0.5,0.7 0.5,1.3 0,0.6 -0.2,1 -0.5,1.3 -0.3,0.3 -0.9,0.5 -1.6,0.5 h -1 v 2.1 h -1.7 z m 1.7,2.4 h 0.4 c 0.3,0 0.6,-0.1 0.7,-0.2 0.1,-0.1 0.2,-0.3 0.2,-0.4 0,-0.2 -0.1,-0.3 -0.2,-0.4 -0.1,-0.1 -0.3,-0.2 -0.7,-0.2 h -0.5 v 1.2 z"
     fill="#ffffff"
     id="path322" />
  <path
     d="m 420.3,209.5 h -2 l -0.3,0.9 h -1.8 l 2.1,-5.6 h 1.9 l 2.1,5.6 h -1.8 z m -0.3,-1.2 -0.6,-2 -0.6,2 z"
     fill="#ffffff"
     id="path324" />
  <path
     d="m 426.4,204.8 h 1.7 v 3.4 c 0,0.3 -0.1,0.6 -0.2,0.9 -0.1,0.3 -0.3,0.6 -0.5,0.8 -0.2,0.2 -0.5,0.4 -0.7,0.5 -0.3,0.1 -0.7,0.2 -1.2,0.2 -0.3,0 -0.6,0 -0.9,-0.1 -0.3,0 -0.6,-0.1 -0.8,-0.2 -0.2,-0.1 -0.4,-0.3 -0.6,-0.5 -0.2,-0.2 -0.3,-0.4 -0.4,-0.6 -0.1,-0.4 -0.2,-0.7 -0.2,-1 v -3.4 h 1.7 v 3.4 c 0,0.3 0.1,0.5 0.3,0.7 0.2,0.2 0.4,0.3 0.7,0.3 0.3,0 0.5,-0.1 0.7,-0.3 0.2,-0.2 0.3,-0.4 0.3,-0.7 v -3.4 z"
     fill="#ffffff"
     id="path326" />
  <path
     d="m 429,208.6 1.7,-0.1 c 0,0.3 0.1,0.5 0.2,0.6 0.2,0.2 0.4,0.3 0.8,0.3 0.2,0 0.4,-0.1 0.6,-0.2 0.1,-0.1 0.2,-0.3 0.2,-0.4 0,-0.1 -0.1,-0.3 -0.2,-0.4 -0.1,-0.1 -0.4,-0.2 -0.9,-0.3 -0.8,-0.2 -1.3,-0.4 -1.6,-0.7 -0.3,-0.3 -0.5,-0.6 -0.5,-1.1 0,-0.3 0.1,-0.6 0.3,-0.8 0.2,-0.2 0.4,-0.5 0.8,-0.6 0.3,-0.1 0.8,-0.2 1.4,-0.2 0.7,0 1.3,0.1 1.6,0.4 0.4,0.3 0.6,0.7 0.7,1.3 l -1.6,0.1 c 0,-0.3 -0.1,-0.4 -0.3,-0.6 -0.2,-0.2 -0.3,-0.2 -0.6,-0.2 -0.2,0 -0.4,0 -0.5,0.1 -0.1,0.1 -0.2,0.2 -0.2,0.3 0,0.1 0,0.2 0.1,0.2 0.1,0.1 0.3,0.1 0.6,0.2 0.8,0.2 1.3,0.3 1.6,0.5 0.3,0.2 0.6,0.4 0.7,0.6 0.1,0.2 0.2,0.5 0.2,0.8 0,0.4 -0.1,0.7 -0.3,1 -0.2,0.3 -0.5,0.5 -0.8,0.7 -0.3,0.2 -0.8,0.2 -1.4,0.2 -1,0 -1.6,-0.2 -2,-0.6 -0.4,-0.1 -0.6,-0.6 -0.6,-1.1 z"
     fill="#ffffff"
     id="path328" />
  <path
     d="m 434.9,204.8 h 4.7 v 1.2 h -2.9 v 0.9 h 2.7 v 1.1 h -2.7 v 1.1 h 3 v 1.3 H 435 v -5.6 z"
     fill="#ffffff"
     id="path330" />
  <path
     d="m 282.6,175.1 1.5,0.5 c -0.1,0.4 -0.3,0.8 -0.5,1.1 -0.2,0.3 -0.5,0.5 -0.8,0.6 -0.3,0.1 -0.7,0.2 -1.2,0.2 -0.6,0 -1.1,-0.1 -1.5,-0.3 -0.4,-0.2 -0.7,-0.5 -1,-0.9 -0.3,-0.4 -0.4,-1 -0.4,-1.7 0,-0.9 0.2,-1.6 0.7,-2.1 0.5,-0.5 1.2,-0.8 2.1,-0.8 0.7,0 1.3,0.1 1.7,0.4 0.4,0.3 0.7,0.7 0.9,1.3 l -1.5,0.3 c -0.1,-0.2 -0.1,-0.3 -0.2,-0.4 -0.1,-0.1 -0.2,-0.2 -0.4,-0.3 -0.2,-0.1 -0.3,-0.1 -0.5,-0.1 -0.4,0 -0.7,0.2 -0.9,0.5 -0.2,0.2 -0.2,0.6 -0.2,1.1 0,0.6 0.1,1.1 0.3,1.3 0.2,0.2 0.5,0.3 0.8,0.3 0.3,0 0.6,-0.1 0.8,-0.3 0.2,-0.2 0.3,-0.3 0.3,-0.7 z"
     fill="#ffffff"
     id="path332" />
  <path
     d="m 288.5,176.5 h -2 l -0.3,0.9 h -1.8 l 2.1,-5.6 h 1.9 l 2.1,5.6 h -1.8 z m -0.4,-1.2 -0.6,-2 -0.6,2 z"
     fill="#ffffff"
     id="path334" />
  <path
     d="m 290.8,175.6 1.7,-0.1 c 0,0.3 0.1,0.5 0.2,0.6 0.2,0.2 0.4,0.3 0.8,0.3 0.2,0 0.4,-0.1 0.6,-0.2 0.1,-0.1 0.2,-0.3 0.2,-0.4 0,-0.1 -0.1,-0.3 -0.2,-0.4 -0.1,-0.1 -0.4,-0.2 -0.9,-0.3 -0.8,-0.2 -1.3,-0.4 -1.6,-0.7 -0.3,-0.3 -0.5,-0.6 -0.5,-1.1 0,-0.3 0.1,-0.6 0.3,-0.8 0.2,-0.2 0.4,-0.5 0.8,-0.6 0.3,-0.1 0.8,-0.2 1.4,-0.2 0.7,0 1.3,0.1 1.6,0.4 0.4,0.3 0.6,0.7 0.7,1.3 l -1.6,0.1 c 0,-0.3 -0.1,-0.4 -0.3,-0.6 -0.2,-0.2 -0.3,-0.2 -0.6,-0.2 -0.2,0 -0.4,0 -0.5,0.1 -0.1,0.1 -0.2,0.2 -0.2,0.3 0,0.1 0,0.2 0.1,0.2 0.1,0.1 0.3,0.1 0.6,0.2 0.8,0.2 1.3,0.3 1.6,0.5 0.3,0.2 0.6,0.4 0.7,0.6 0.1,0.2 0.2,0.5 0.2,0.8 0,0.4 -0.1,0.7 -0.3,1 -0.2,0.3 -0.5,0.5 -0.8,0.7 -0.3,0.2 -0.8,0.2 -1.4,0.2 -1,0 -1.6,-0.2 -2,-0.6 -0.3,-0.1 -0.5,-0.6 -0.6,-1.1 z"
     fill="#ffffff"
     id="path336" />
  <path
     d="m 296.5,175.6 1.7,-0.1 c 0,0.3 0.1,0.5 0.2,0.6 0.2,0.2 0.4,0.3 0.8,0.3 0.2,0 0.4,-0.1 0.6,-0.2 0.1,-0.1 0.2,-0.3 0.2,-0.4 0,-0.1 -0.1,-0.3 -0.2,-0.4 -0.1,-0.1 -0.4,-0.2 -0.9,-0.3 -0.8,-0.2 -1.3,-0.4 -1.6,-0.7 -0.3,-0.3 -0.5,-0.6 -0.5,-1.1 0,-0.3 0.1,-0.6 0.3,-0.8 0.2,-0.2 0.4,-0.5 0.8,-0.6 0.3,-0.1 0.8,-0.2 1.4,-0.2 0.7,0 1.3,0.1 1.6,0.4 0.4,0.3 0.6,0.7 0.7,1.3 l -1.6,0.1 c 0,-0.3 -0.1,-0.4 -0.3,-0.6 -0.2,-0.2 -0.3,-0.2 -0.6,-0.2 -0.2,0 -0.4,0 -0.5,0.1 -0.1,0.1 -0.2,0.2 -0.2,0.3 0,0.1 0,0.2 0.1,0.2 0.1,0.1 0.3,0.1 0.6,0.2 0.8,0.2 1.3,0.3 1.6,0.5 0.3,0.2 0.6,0.4 0.7,0.6 0.1,0.2 0.2,0.5 0.2,0.8 0,0.4 -0.1,0.7 -0.3,1 -0.2,0.3 -0.5,0.5 -0.8,0.7 -0.3,0.2 -0.8,0.2 -1.4,0.2 -1,0 -1.6,-0.2 -2,-0.6 -0.3,-0.1 -0.5,-0.6 -0.6,-1.1 z"
     fill="#ffffff"
     id="path338" />
  <path
     d="m 302.5,171.8 h 4.7 v 1.2 h -2.9 v 0.9 h 2.7 v 1.1 h -2.7 v 1.1 h 3 v 1.3 h -4.7 v -5.6 z"
     fill="#ffffff"
     id="path340" />
  <path
     d="m 307.8,171.8 h 5.3 v 1.4 h -1.8 v 4.2 h -1.7 v -4.2 h -1.8 z"
     fill="#ffffff"
     id="path342" />
  <path
     d="m 313.4,171.8 h 5.3 v 1.4 H 317 v 4.2 h -1.7 v -4.2 h -1.8 v -1.4 z"
     fill="#ffffff"
     id="path344" />
  <path
     d="m 319.5,171.8 h 4.7 v 1.2 h -2.9 v 0.9 h 2.7 v 1.1 h -2.7 v 1.1 h 3 v 1.3 h -4.7 v -5.6 z"
     fill="#ffffff"
     id="path346" />
  <path
     d="m 330.7,175.4 v -1.2 h 2.7 v 2.4 c -0.5,0.4 -1,0.6 -1.4,0.7 -0.4,0.1 -0.9,0.2 -1.4,0.2 -0.7,0 -1.2,-0.1 -1.6,-0.3 -0.4,-0.2 -0.7,-0.6 -1,-1 -0.2,-0.5 -0.3,-1 -0.3,-1.6 0,-0.6 0.1,-1.1 0.4,-1.6 0.3,-0.5 0.6,-0.8 1.1,-1 0.4,-0.2 0.9,-0.3 1.5,-0.3 0.6,0 1.1,0.1 1.4,0.2 0.3,0.1 0.6,0.3 0.8,0.5 0.2,0.2 0.4,0.5 0.5,0.9 l -1.7,0.3 c -0.1,-0.2 -0.2,-0.4 -0.4,-0.5 -0.2,-0.1 -0.4,-0.2 -0.6,-0.2 -0.4,0 -0.7,0.1 -0.9,0.4 -0.2,0.3 -0.3,0.7 -0.3,1.3 0,0.6 0.1,1 0.3,1.3 0.2,0.3 0.5,0.4 1,0.4 0.2,0 0.4,0 0.6,-0.1 0.2,-0.1 0.4,-0.2 0.6,-0.3 v -0.5 z"
     fill="#ffffff"
     id="path348" />
  <path
     d="m 337.8,176.5 h -2 l -0.3,0.9 h -1.8 l 2.1,-5.6 h 1.9 l 2.1,5.6 H 338 Z m -0.3,-1.2 -0.6,-2 -0.6,2 z"
     fill="#ffffff"
     id="path350" />
  <path
     d="m 340.5,171.8 h 2.3 l 0.9,3.4 0.9,-3.4 h 2.3 v 5.6 h -1.4 v -4.3 l -1.1,4.3 H 343 l -1.1,-4.3 v 4.3 h -1.4 z"
     fill="#ffffff"
     id="path352" />
  <path
     d="m 347.9,171.8 h 4.7 v 1.2 h -2.9 v 0.9 h 2.7 v 1.1 h -2.7 v 1.1 h 3 v 1.3 H 348 v -5.6 z"
     fill="#ffffff"
     id="path354" />
  <path
     d="m 297.9,181.3 h 2.3 l 0.9,3.4 0.9,-3.4 h 2.3 v 5.6 h -1.4 v -4.3 l -1.1,4.3 h -1.3 l -1.1,-4.3 v 4.3 H 298 v -5.6 z"
     fill="#ffffff"
     id="path356" />
  <path
     d="m 308.8,186 h -2 l -0.3,0.9 h -1.8 l 2.1,-5.6 h 1.9 l 2.1,5.6 H 309 Z m -0.4,-1.3 -0.6,-2 -0.6,2 z"
     fill="#ffffff"
     id="path358" />
  <path
     d="m 311.1,185 1.7,-0.1 c 0,0.3 0.1,0.5 0.2,0.6 0.2,0.2 0.4,0.3 0.8,0.3 0.2,0 0.4,-0.1 0.6,-0.2 0.1,-0.1 0.2,-0.3 0.2,-0.4 0,-0.1 -0.1,-0.3 -0.2,-0.4 -0.1,-0.1 -0.4,-0.2 -0.9,-0.3 -0.8,-0.2 -1.3,-0.4 -1.6,-0.7 -0.3,-0.3 -0.5,-0.6 -0.5,-1.1 0,-0.3 0.1,-0.6 0.3,-0.8 0.2,-0.2 0.4,-0.5 0.8,-0.6 0.3,-0.1 0.8,-0.2 1.4,-0.2 0.7,0 1.3,0.1 1.6,0.4 0.4,0.3 0.6,0.7 0.7,1.3 l -1.6,0.1 c 0,-0.3 -0.1,-0.4 -0.3,-0.6 -0.2,-0.2 -0.3,-0.2 -0.6,-0.2 -0.2,0 -0.4,0 -0.5,0.1 -0.1,0.1 -0.2,0.2 -0.2,0.3 0,0.1 0,0.2 0.1,0.2 0.1,0.1 0.3,0.1 0.6,0.2 0.8,0.2 1.3,0.3 1.6,0.5 0.3,0.2 0.6,0.4 0.7,0.6 0.1,0.2 0.2,0.5 0.2,0.8 0,0.4 -0.1,0.7 -0.3,1 -0.2,0.3 -0.5,0.5 -0.8,0.7 -0.3,0.2 -0.8,0.2 -1.4,0.2 -1,0 -1.6,-0.2 -2,-0.6 -0.3,0 -0.5,-0.5 -0.6,-1.1 z"
     fill="#ffffff"
     id="path360" />
  <path
     d="m 316.7,181.3 h 5.3 v 1.4 h -1.8 v 4.2 h -1.7 v -4.2 h -1.8 z"
     fill="#ffffff"
     id="path362" />
  <path
     d="m 322.8,181.3 h 4.7 v 1.2 h -2.9 v 0.9 h 2.7 v 1.1 h -2.7 v 1.1 h 3 v 1.3 h -4.7 v -5.6 z"
     fill="#ffffff"
     id="path364" />
  <path
     d="m 328.5,186.9 v -5.6 h 2.9 c 0.5,0 0.9,0 1.2,0.1 0.3,0.1 0.5,0.3 0.7,0.5 0.2,0.2 0.3,0.6 0.3,0.9 0,0.3 -0.1,0.6 -0.2,0.8 -0.1,0.2 -0.3,0.4 -0.5,0.6 -0.1,0.1 -0.4,0.2 -0.6,0.2 0.2,0.1 0.4,0.1 0.5,0.2 0.1,0 0.2,0.1 0.3,0.3 0.1,0.2 0.2,0.3 0.2,0.3 l 0.8,1.6 h -2 l -0.9,-1.7 c -0.1,-0.2 -0.2,-0.4 -0.3,-0.4 -0.1,-0.1 -0.3,-0.1 -0.4,-0.1 h -0.2 v 2.3 z m 1.7,-3.4 h 0.7 c 0.1,0 0.2,0 0.5,-0.1 0.1,0 0.2,-0.1 0.3,-0.2 0.1,-0.1 0.1,-0.2 0.1,-0.3 0,-0.2 -0.1,-0.3 -0.2,-0.4 -0.1,-0.1 -0.3,-0.1 -0.6,-0.1 h -0.8 z"
     fill="#ffffff"
     id="path366" />
  <path
     d="m 291.6,194 1.5,0.5 c -0.1,0.4 -0.3,0.8 -0.5,1.1 -0.2,0.3 -0.5,0.5 -0.8,0.6 -0.3,0.1 -0.7,0.2 -1.2,0.2 -0.6,0 -1.1,-0.1 -1.5,-0.3 -0.4,-0.2 -0.7,-0.5 -1,-0.9 -0.3,-0.4 -0.4,-1 -0.4,-1.7 0,-0.9 0.2,-1.6 0.7,-2.1 0.5,-0.5 1.2,-0.8 2.1,-0.8 0.7,0 1.3,0.1 1.7,0.4 0.4,0.3 0.7,0.7 0.9,1.3 l -1.5,0.3 c -0.1,-0.2 -0.1,-0.3 -0.2,-0.4 -0.1,-0.1 -0.2,-0.2 -0.4,-0.3 -0.2,-0.1 -0.3,-0.1 -0.5,-0.1 -0.4,0 -0.7,0.2 -0.9,0.5 -0.2,0.2 -0.2,0.6 -0.2,1.1 0,0.6 0.1,1.1 0.3,1.3 0.2,0.2 0.5,0.3 0.8,0.3 0.3,0 0.6,-0.1 0.8,-0.3 0.2,-0.2 0.2,-0.3 0.3,-0.7 z"
     fill="#ffffff"
     id="path368" />
  <path
     d="m 293.8,193.5 c 0,-0.9 0.3,-1.6 0.8,-2.1 0.5,-0.5 1.2,-0.8 2.1,-0.8 0.9,0 1.7,0.3 2.2,0.8 0.5,0.5 0.8,1.2 0.8,2.1 0,0.7 -0.1,1.2 -0.3,1.6 -0.2,0.4 -0.5,0.7 -1,1 -0.4,0.2 -0.9,0.4 -1.6,0.4 -0.6,0 -1.2,-0.1 -1.6,-0.3 -0.4,-0.2 -0.8,-0.5 -1,-1 -0.3,-0.5 -0.4,-1 -0.4,-1.7 z m 1.7,0 c 0,0.6 0.1,1 0.3,1.2 0.2,0.2 0.5,0.4 0.9,0.4 0.4,0 0.7,-0.1 0.9,-0.4 0.2,-0.2 0.3,-0.7 0.3,-1.3 0,-0.5 -0.1,-0.9 -0.3,-1.2 -0.2,-0.2 -0.5,-0.4 -0.9,-0.4 -0.4,0 -0.6,0.1 -0.8,0.4 -0.3,0.3 -0.4,0.7 -0.4,1.3 z"
     fill="#ffffff"
     id="path370" />
  <path
     d="m 300.5,190.7 h 2.3 l 0.9,3.4 0.9,-3.4 h 2.3 v 5.6 h -1.4 V 192 l -1.1,4.3 H 303 l -1.1,-4.3 v 4.3 h -1.4 z"
     fill="#ffffff"
     id="path372" />
  <path
     d="m 307.9,190.7 h 2.9 c 0.6,0 1.1,0.1 1.4,0.4 0.3,0.3 0.5,0.7 0.5,1.3 0,0.6 -0.2,1 -0.5,1.3 -0.3,0.3 -0.9,0.5 -1.6,0.5 h -1 v 2.1 h -1.7 z m 1.8,2.4 h 0.4 c 0.3,0 0.6,-0.1 0.7,-0.2 0.1,-0.1 0.2,-0.3 0.2,-0.4 0,-0.2 -0.1,-0.3 -0.2,-0.4 -0.1,-0.1 -0.3,-0.2 -0.7,-0.2 h -0.5 v 1.2 z"
     fill="#ffffff"
     id="path374" />
  <path
     d="m 313.4,193.5 c 0,-0.9 0.3,-1.6 0.8,-2.1 0.5,-0.5 1.2,-0.8 2.1,-0.8 0.9,0 1.7,0.3 2.2,0.8 0.5,0.5 0.8,1.2 0.8,2.1 0,0.7 -0.1,1.2 -0.3,1.6 -0.2,0.4 -0.5,0.7 -1,1 -0.4,0.2 -0.9,0.4 -1.6,0.4 -0.6,0 -1.2,-0.1 -1.6,-0.3 -0.4,-0.2 -0.8,-0.5 -1,-1 -0.3,-0.5 -0.4,-1 -0.4,-1.7 z m 1.7,0 c 0,0.6 0.1,1 0.3,1.2 0.2,0.2 0.5,0.4 0.9,0.4 0.4,0 0.7,-0.1 0.9,-0.4 0.2,-0.2 0.3,-0.7 0.3,-1.3 0,-0.5 -0.1,-0.9 -0.3,-1.2 -0.2,-0.2 -0.5,-0.4 -0.9,-0.4 -0.4,0 -0.6,0.1 -0.8,0.4 -0.3,0.3 -0.4,0.7 -0.4,1.3 z"
     fill="#ffffff"
     id="path376" />
  <path
     d="m 320.2,190.7 h 1.6 l 2.1,3.1 v -3.1 h 1.6 v 5.6 h -1.6 l -2.1,-3.1 v 3.1 h -1.6 z"
     fill="#ffffff"
     id="path378" />
  <path
     d="m 326.7,190.7 h 4.7 v 1.2 h -2.9 v 0.9 h 2.7 v 1.1 h -2.7 v 1.1 h 3 v 1.3 h -4.7 v -5.6 z"
     fill="#ffffff"
     id="path380" />
  <path
     d="m 332.4,190.7 h 1.6 l 2.1,3.1 v -3.1 h 1.6 v 5.6 h -1.6 l -2.1,-3.1 v 3.1 h -1.6 z"
     fill="#ffffff"
     id="path382" />
  <path
     d="m 338.6,190.7 h 5.3 v 1.4 h -1.8 v 4.2 h -1.7 v -4.2 h -1.8 z"
     fill="#ffffff"
     id="path384" />
  <path
     d="m 288,209.5 h -2 l -0.3,0.9 H 284 l 2.1,-5.6 h 1.9 l 2.1,5.6 h -1.8 z m -0.4,-1.2 -0.6,-2 -0.6,2 z"
     fill="#ed1c24"
     id="path386" />
  <path
     d="m 290.7,204.8 h 1.6 l 2.1,3.1 v -3.1 h 1.6 v 5.6 h -1.6 l -2.1,-3.1 v 3.1 h -1.6 z"
     fill="#ed1c24"
     id="path388" />
  <path
     d="m 300.6,209.5 h -2 l -0.3,0.9 h -1.8 l 2.1,-5.6 h 1.9 l 2.1,5.6 h -1.8 z m -0.4,-1.2 -0.6,-2 -0.6,2 z"
     fill="#ed1c24"
     id="path390" />
  <path
     d="m 303.2,204.8 h 1.7 v 4.2 h 2.7 v 1.4 h -4.5 v -5.6 z"
     fill="#ed1c24"
     id="path392" />
  <path
     d="m 308.1,207.6 c 0,-0.9 0.3,-1.6 0.8,-2.1 0.5,-0.5 1.2,-0.8 2.1,-0.8 0.9,0 1.7,0.3 2.2,0.8 0.5,0.5 0.8,1.2 0.8,2.1 0,0.7 -0.1,1.2 -0.3,1.6 -0.2,0.4 -0.5,0.7 -1,1 -0.4,0.2 -0.9,0.4 -1.6,0.4 -0.6,0 -1.2,-0.1 -1.6,-0.3 -0.4,-0.2 -0.8,-0.5 -1,-1 -0.2,-0.5 -0.4,-1 -0.4,-1.7 z m 1.8,0 c 0,0.6 0.1,1 0.3,1.2 0.2,0.2 0.5,0.4 0.9,0.4 0.4,0 0.7,-0.1 0.9,-0.4 0.2,-0.2 0.3,-0.7 0.3,-1.3 0,-0.5 -0.1,-0.9 -0.3,-1.2 -0.2,-0.2 -0.5,-0.4 -0.9,-0.4 -0.4,0 -0.6,0.1 -0.8,0.4 -0.3,0.4 -0.4,0.8 -0.4,1.3 z"
     fill="#ed1c24"
     id="path394" />
  <path
     d="m 317.7,208.4 v -1.2 h 2.7 v 2.4 c -0.5,0.4 -1,0.6 -1.4,0.7 -0.4,0.1 -0.9,0.2 -1.4,0.2 -0.7,0 -1.2,-0.1 -1.6,-0.3 -0.4,-0.2 -0.7,-0.6 -1,-1 -0.2,-0.5 -0.3,-1 -0.3,-1.6 0,-0.6 0.1,-1.1 0.4,-1.6 0.3,-0.5 0.6,-0.8 1.1,-1 0.4,-0.2 0.9,-0.3 1.5,-0.3 0.6,0 1.1,0.1 1.4,0.2 0.3,0.1 0.6,0.3 0.8,0.5 0.2,0.2 0.4,0.5 0.5,0.9 l -1.7,0.3 c -0.1,-0.2 -0.2,-0.4 -0.4,-0.5 -0.2,-0.1 -0.4,-0.2 -0.6,-0.2 -0.4,0 -0.7,0.1 -0.9,0.4 -0.2,0.3 -0.3,0.7 -0.3,1.3 0,0.6 0.1,1 0.3,1.3 0.2,0.3 0.5,0.4 1,0.4 0.2,0 0.4,0 0.6,-0.1 0.2,-0.1 0.4,-0.2 0.6,-0.3 v -0.5 z"
     fill="#ed1c24"
     id="path396" />
  <path
     d="m 323.7,207.8 h 2.3 v 1.2 h -2.3 z"
     fill="#ed1c24"
     id="path398" />
  <path
     d="m 329.3,210.4 v -5.6 h 2.9 c 0.5,0 0.9,0 1.2,0.1 0.3,0.1 0.5,0.3 0.7,0.5 0.2,0.2 0.3,0.6 0.3,0.9 0,0.3 -0.1,0.6 -0.2,0.8 -0.1,0.2 -0.3,0.4 -0.5,0.6 -0.1,0.1 -0.4,0.2 -0.6,0.2 0.2,0.1 0.4,0.1 0.5,0.2 0.1,0 0.2,0.1 0.3,0.3 0.1,0.2 0.2,0.3 0.2,0.3 l 0.8,1.6 h -2 l -0.9,-1.7 c -0.1,-0.2 -0.2,-0.4 -0.3,-0.4 -0.1,-0.1 -0.3,-0.1 -0.4,-0.1 h -0.2 v 2.3 z m 1.8,-3.3 h 0.7 c 0.1,0 0.2,0 0.5,-0.1 0.1,0 0.2,-0.1 0.3,-0.2 0.1,-0.1 0.1,-0.2 0.1,-0.3 0,-0.2 -0.1,-0.3 -0.2,-0.4 -0.1,-0.1 -0.3,-0.1 -0.6,-0.1 h -0.8 z"
     fill="#ed1c24"
     id="path400" />
  <path
     d="m 338.1,208.4 v -1.2 h 2.7 v 2.4 c -0.5,0.4 -1,0.6 -1.4,0.7 -0.4,0.1 -0.9,0.2 -1.4,0.2 -0.7,0 -1.2,-0.1 -1.6,-0.3 -0.4,-0.2 -0.7,-0.6 -1,-1 -0.2,-0.5 -0.3,-1 -0.3,-1.6 0,-0.6 0.1,-1.1 0.4,-1.6 0.3,-0.5 0.6,-0.8 1.1,-1 0.4,-0.2 0.9,-0.3 1.5,-0.3 0.6,0 1.1,0.1 1.4,0.2 0.3,0.1 0.6,0.3 0.8,0.5 0.2,0.2 0.4,0.5 0.5,0.9 l -1.7,0.3 c -0.1,-0.2 -0.2,-0.4 -0.4,-0.5 -0.2,-0.1 -0.4,-0.2 -0.6,-0.2 -0.4,0 -0.7,0.1 -0.9,0.4 -0.2,0.3 -0.3,0.7 -0.3,1.3 0,0.6 0.1,1 0.3,1.3 0.2,0.3 0.5,0.4 1,0.4 0.2,0 0.4,0 0.6,-0.1 l 0.6,-0.3 v -0.5 z"
     fill="#ed1c24"
     id="path402" />
  <path
     d="m 341.8,204.8 h 3.3 c 0.5,0 1,0.1 1.3,0.4 0.3,0.3 0.4,0.6 0.4,1 0,0.3 -0.1,0.6 -0.3,0.9 -0.1,0.2 -0.3,0.3 -0.6,0.4 0.4,0.1 0.7,0.3 0.9,0.5 0.2,0.2 0.3,0.5 0.3,0.9 0,0.3 -0.1,0.6 -0.2,0.8 -0.1,0.2 -0.3,0.4 -0.6,0.6 -0.1,0.1 -0.4,0.1 -0.7,0.2 -0.4,0.1 -0.7,0.1 -0.8,0.1 h -3 z m 1.8,2.2 h 0.8 c 0.3,0 0.5,0 0.6,-0.1 0.1,-0.1 0.2,-0.2 0.2,-0.4 0,-0.2 -0.1,-0.3 -0.2,-0.4 -0.1,-0.1 -0.3,-0.1 -0.6,-0.1 h -0.8 z m 0,2.2 h 0.9 c 0.3,0 0.5,-0.1 0.6,-0.2 0.1,-0.1 0.2,-0.2 0.2,-0.4 0,-0.2 -0.1,-0.3 -0.2,-0.4 -0.1,-0.1 -0.3,-0.2 -0.6,-0.2 h -0.9 z"
     fill="#ed1c24"
     id="path404" />
  <path
     d="m 291.6,214.2 v 5.7 H 290 v -3.8 c -0.3,0.2 -0.5,0.4 -0.7,0.5 -0.2,0.1 -0.5,0.2 -0.9,0.3 v -1.3 c 0.5,-0.2 0.9,-0.4 1.2,-0.6 0.3,-0.2 0.5,-0.5 0.7,-0.9 h 1.3 z"
     fill="#ed1c24"
     id="path406" />
  <path
     d="m 297.8,219.9 h -4.7 c 0.1,-0.5 0.2,-0.9 0.5,-1.3 0.3,-0.4 0.8,-0.9 1.5,-1.4 0.5,-0.3 0.8,-0.6 0.9,-0.8 0.1,-0.2 0.2,-0.3 0.2,-0.5 0,-0.2 -0.1,-0.3 -0.2,-0.4 -0.1,-0.1 -0.3,-0.2 -0.5,-0.2 -0.2,0 -0.4,0.1 -0.5,0.2 -0.1,0.1 -0.2,0.3 -0.3,0.7 l -1.6,-0.1 c 0.1,-0.4 0.2,-0.8 0.3,-1 0.2,-0.2 0.4,-0.4 0.7,-0.6 0.3,-0.2 0.7,-0.2 1.2,-0.2 0.6,0 1,0.1 1.3,0.2 0.3,0.1 0.5,0.3 0.7,0.6 0.2,0.3 0.3,0.6 0.3,0.9 0,0.3 -0.1,0.7 -0.3,1 -0.2,0.3 -0.6,0.7 -1.1,1 -0.3,0.2 -0.5,0.4 -0.6,0.5 -0.1,0.1 -0.2,0.2 -0.4,0.3 h 2.4 v 1.1 z"
     fill="#ed1c24"
     id="path408" />
  <path
     d="m 299.5,216.9 c -0.2,-0.1 -0.4,-0.3 -0.5,-0.4 -0.2,-0.2 -0.2,-0.5 -0.2,-0.8 0,-0.5 0.2,-0.9 0.7,-1.2 0.3,-0.2 0.8,-0.3 1.4,-0.3 0.8,0 1.3,0.1 1.7,0.4 0.4,0.3 0.5,0.6 0.5,1.1 0,0.3 -0.1,0.5 -0.2,0.7 -0.1,0.2 -0.3,0.3 -0.5,0.5 0.3,0.1 0.5,0.3 0.7,0.6 0.1,0.2 0.2,0.5 0.2,0.8 0,0.3 -0.1,0.5 -0.2,0.8 -0.1,0.2 -0.3,0.4 -0.5,0.6 -0.2,0.1 -0.4,0.2 -0.7,0.3 -0.3,0.1 -0.6,0.1 -0.9,0.1 -0.6,0 -1.1,-0.1 -1.4,-0.2 -0.3,-0.1 -0.6,-0.3 -0.7,-0.6 -0.1,-0.3 -0.2,-0.6 -0.2,-0.9 0,-0.3 0.1,-0.6 0.2,-0.8 0,-0.4 0.2,-0.6 0.6,-0.7 z m 0.6,1.3 c 0,0.2 0.1,0.5 0.2,0.6 0.2,0.2 0.3,0.2 0.5,0.2 0.2,0 0.4,-0.1 0.5,-0.2 0.1,-0.2 0.2,-0.4 0.2,-0.6 0,-0.2 -0.1,-0.5 -0.2,-0.6 -0.2,-0.2 -0.3,-0.2 -0.5,-0.2 -0.2,0 -0.4,0.1 -0.5,0.2 -0.2,0.1 -0.2,0.3 -0.2,0.6 z m 0.1,-2.5 c 0,0.2 0.1,0.4 0.2,0.5 0.1,0.1 0.3,0.2 0.5,0.2 0.2,0 0.3,-0.1 0.4,-0.2 0.1,-0.1 0.2,-0.3 0.2,-0.5 0,-0.2 -0.1,-0.4 -0.2,-0.5 -0.1,-0.1 -0.3,-0.2 -0.5,-0.2 -0.2,0 -0.3,0.1 -0.5,0.2 -0.2,0.1 -0.1,0.4 -0.1,0.5 z"
     fill="#ed1c24"
     id="path410" />
  <path
     d="m 306.3,218 1.7,-0.1 c 0,0.3 0.1,0.5 0.2,0.6 0.2,0.2 0.4,0.3 0.8,0.3 0.2,0 0.4,-0.1 0.6,-0.2 0.1,-0.1 0.2,-0.3 0.2,-0.4 0,-0.1 -0.1,-0.3 -0.2,-0.4 -0.1,-0.1 -0.4,-0.2 -0.9,-0.3 -0.8,-0.2 -1.3,-0.4 -1.6,-0.7 -0.3,-0.3 -0.5,-0.6 -0.5,-1.1 0,-0.3 0.1,-0.6 0.3,-0.8 0.2,-0.2 0.4,-0.5 0.8,-0.6 0.3,-0.1 0.8,-0.2 1.4,-0.2 0.7,0 1.3,0.1 1.6,0.4 0.4,0.3 0.6,0.7 0.7,1.3 l -1.6,0.1 c 0,-0.3 -0.1,-0.4 -0.3,-0.6 -0.2,-0.2 -0.3,-0.2 -0.6,-0.2 -0.2,0 -0.4,0 -0.5,0.1 -0.1,0.1 -0.2,0.2 -0.2,0.3 0,0.1 0,0.2 0.1,0.2 0.1,0.1 0.3,0.1 0.6,0.2 0.8,0.2 1.3,0.3 1.6,0.5 0.3,0.2 0.6,0.4 0.7,0.6 0.1,0.2 0.2,0.5 0.2,0.8 0,0.4 -0.1,0.7 -0.3,1 -0.2,0.3 -0.5,0.5 -0.8,0.7 -0.3,0.2 -0.8,0.2 -1.4,0.2 -1,0 -1.6,-0.2 -2,-0.6 -0.3,0 -0.5,-0.5 -0.6,-1.1 z"
     fill="#ed1c24"
     id="path412" />
  <path
     d="m 312.3,214.3 h 2.9 c 0.6,0 1.1,0.1 1.4,0.4 0.3,0.3 0.5,0.7 0.5,1.3 0,0.6 -0.2,1 -0.5,1.3 -0.3,0.3 -0.9,0.5 -1.6,0.5 h -1 v 2.1 h -1.7 z m 1.8,2.4 h 0.4 c 0.3,0 0.6,-0.1 0.7,-0.2 0.1,-0.1 0.2,-0.3 0.2,-0.4 0,-0.2 -0.1,-0.3 -0.2,-0.4 -0.1,-0.1 -0.3,-0.2 -0.7,-0.2 H 314 v 1.2 z"
     fill="#ed1c24"
     id="path414" />
  <path
     d="m 318,219.9 v -5.6 h 2.9 c 0.5,0 0.9,0 1.2,0.1 0.3,0.1 0.5,0.3 0.7,0.5 0.2,0.2 0.3,0.6 0.3,0.9 0,0.3 -0.1,0.6 -0.2,0.8 -0.1,0.2 -0.3,0.4 -0.5,0.6 -0.1,0.1 -0.4,0.2 -0.6,0.2 0.2,0.1 0.4,0.1 0.5,0.2 0.1,0 0.2,0.1 0.3,0.3 0.1,0.2 0.2,0.3 0.2,0.3 l 0.8,1.6 h -2 l -0.9,-1.7 c -0.1,-0.2 -0.2,-0.4 -0.3,-0.4 -0.1,-0.1 -0.3,-0.1 -0.4,-0.1 h -0.2 v 2.3 z m 1.8,-3.4 h 0.7 c 0.1,0 0.2,0 0.5,-0.1 0.1,0 0.2,-0.1 0.3,-0.2 0.1,-0.1 0.1,-0.2 0.1,-0.3 0,-0.2 -0.1,-0.3 -0.2,-0.4 -0.1,-0.1 -0.3,-0.1 -0.6,-0.1 h -0.8 z"
     fill="#ed1c24"
     id="path416" />
  <path
     d="m 324.2,214.3 h 1.7 v 5.6 h -1.7 z"
     fill="#ed1c24"
     id="path418" />
  <path
     d="m 326.8,214.3 h 5.3 v 1.4 h -1.8 v 4.2 h -1.7 v -4.2 h -1.8 z"
     fill="#ed1c24"
     id="path420" />
  <path
     d="m 332.8,214.3 h 4.7 v 1.2 h -2.9 v 0.9 h 2.7 v 1.1 h -2.7 v 1.1 h 3 v 1.3 h -4.7 v -5.6 z"
     fill="#ed1c24"
     id="path422" />
  <path
     d="m 338.2,218 1.7,-0.1 c 0,0.3 0.1,0.5 0.2,0.6 0.2,0.2 0.4,0.3 0.8,0.3 0.2,0 0.4,-0.1 0.6,-0.2 0.1,-0.1 0.2,-0.3 0.2,-0.4 0,-0.1 -0.1,-0.3 -0.2,-0.4 -0.1,-0.1 -0.4,-0.2 -0.9,-0.3 -0.8,-0.2 -1.3,-0.4 -1.6,-0.7 -0.3,-0.3 -0.5,-0.6 -0.5,-1.1 0,-0.3 0.1,-0.6 0.3,-0.8 0.2,-0.2 0.4,-0.5 0.8,-0.6 0.3,-0.1 0.8,-0.2 1.4,-0.2 0.7,0 1.3,0.1 1.6,0.4 0.4,0.3 0.6,0.7 0.7,1.3 l -1.6,0.1 c 0,-0.3 -0.1,-0.4 -0.3,-0.6 -0.2,-0.2 -0.3,-0.2 -0.6,-0.2 -0.2,0 -0.4,0 -0.5,0.1 -0.1,0.1 -0.2,0.2 -0.2,0.3 0,0.1 0,0.2 0.1,0.2 0.1,0.1 0.3,0.1 0.6,0.2 0.8,0.2 1.3,0.3 1.6,0.5 0.3,0.2 0.6,0.4 0.7,0.6 0.1,0.2 0.2,0.5 0.2,0.8 0,0.4 -0.1,0.7 -0.3,1 -0.2,0.3 -0.5,0.5 -0.8,0.7 -0.3,0.2 -0.8,0.2 -1.4,0.2 -1,0 -1.6,-0.2 -2,-0.6 -0.3,0 -0.5,-0.5 -0.6,-1.1 z"
     fill="#ed1c24"
     id="path424" />
  <path
     d="m 139.2,236.5 1.5,0.5 c -0.1,0.4 -0.3,0.8 -0.5,1.1 -0.2,0.3 -0.5,0.5 -0.8,0.6 -0.3,0.1 -0.7,0.2 -1.2,0.2 -0.6,0 -1.1,-0.1 -1.5,-0.3 -0.4,-0.2 -0.7,-0.5 -1,-0.9 -0.3,-0.4 -0.4,-1 -0.4,-1.7 0,-0.9 0.2,-1.6 0.7,-2.1 0.5,-0.5 1.2,-0.8 2.1,-0.8 0.7,0 1.3,0.1 1.7,0.4 0.4,0.3 0.7,0.7 0.9,1.3 l -1.5,0.3 c -0.1,-0.2 -0.1,-0.3 -0.2,-0.4 -0.1,-0.1 -0.2,-0.2 -0.4,-0.3 -0.2,-0.1 -0.3,-0.1 -0.5,-0.1 -0.4,0 -0.7,0.2 -0.9,0.5 -0.2,0.2 -0.2,0.6 -0.2,1.1 0,0.6 0.1,1.1 0.3,1.3 0.2,0.2 0.5,0.3 0.8,0.3 0.3,0 0.6,-0.1 0.8,-0.3 0.2,-0.2 0.2,-0.4 0.3,-0.7 z"
     fill="#ffffff"
     id="path426" />
  <path
     d="m 145,237.8 h -2 l -0.3,0.9 H 141 l 2.1,-5.6 h 1.9 l 2.1,5.6 h -1.8 z m -0.3,-1.2 -0.6,-2 -0.6,2 z"
     fill="#ffffff"
     id="path428" />
  <path
     d="m 147.4,236.9 1.7,-0.1 c 0,0.3 0.1,0.5 0.2,0.6 0.2,0.2 0.4,0.3 0.8,0.3 0.2,0 0.4,-0.1 0.6,-0.2 0.1,-0.1 0.2,-0.3 0.2,-0.4 0,-0.1 -0.1,-0.3 -0.2,-0.4 -0.1,-0.1 -0.4,-0.2 -0.9,-0.3 -0.8,-0.2 -1.3,-0.4 -1.6,-0.7 -0.3,-0.3 -0.5,-0.6 -0.5,-1.1 0,-0.3 0.1,-0.6 0.3,-0.8 0.2,-0.2 0.4,-0.5 0.8,-0.6 0.3,-0.1 0.8,-0.2 1.4,-0.2 0.7,0 1.3,0.1 1.6,0.4 0.4,0.3 0.6,0.7 0.7,1.3 l -1.6,0.1 c 0,-0.3 -0.1,-0.4 -0.3,-0.6 -0.2,-0.2 -0.3,-0.2 -0.6,-0.2 -0.2,0 -0.4,0 -0.5,0.1 -0.1,0.1 -0.2,0.2 -0.2,0.3 0,0.1 0,0.2 0.1,0.2 0.1,0.1 0.3,0.1 0.6,0.2 0.8,0.2 1.3,0.3 1.6,0.5 0.3,0.2 0.6,0.4 0.7,0.6 0.1,0.2 0.2,0.5 0.2,0.8 0,0.4 -0.1,0.7 -0.3,1 -0.2,0.3 -0.5,0.5 -0.8,0.7 -0.3,0.2 -0.8,0.2 -1.4,0.2 -1,0 -1.6,-0.2 -2,-0.6 -0.4,0 -0.6,-0.5 -0.6,-1.1 z"
     fill="#ffffff"
     id="path430" />
  <path
     d="m 153.1,236.9 1.7,-0.1 c 0,0.3 0.1,0.5 0.2,0.6 0.2,0.2 0.4,0.3 0.8,0.3 0.2,0 0.4,-0.1 0.6,-0.2 0.1,-0.1 0.2,-0.3 0.2,-0.4 0,-0.1 -0.1,-0.3 -0.2,-0.4 -0.1,-0.1 -0.4,-0.2 -0.9,-0.3 -0.8,-0.2 -1.3,-0.4 -1.6,-0.7 -0.3,-0.3 -0.5,-0.6 -0.5,-1.1 0,-0.3 0.1,-0.6 0.3,-0.8 0.2,-0.2 0.4,-0.5 0.8,-0.6 0.3,-0.1 0.8,-0.2 1.4,-0.2 0.7,0 1.3,0.1 1.6,0.4 0.4,0.3 0.6,0.7 0.7,1.3 l -1.6,0.1 c 0,-0.3 -0.1,-0.4 -0.3,-0.6 -0.2,-0.2 -0.3,-0.2 -0.6,-0.2 -0.2,0 -0.4,0 -0.5,0.1 -0.1,0.1 -0.2,0.2 -0.2,0.3 0,0.1 0,0.2 0.1,0.2 0.1,0.1 0.3,0.1 0.6,0.2 0.8,0.2 1.3,0.3 1.6,0.5 0.3,0.2 0.6,0.4 0.7,0.6 0.1,0.2 0.2,0.5 0.2,0.8 0,0.4 -0.1,0.7 -0.3,1 -0.2,0.3 -0.5,0.5 -0.8,0.7 -0.3,0.2 -0.8,0.2 -1.4,0.2 -1,0 -1.6,-0.2 -2,-0.6 -0.4,0 -0.6,-0.5 -0.6,-1.1 z"
     fill="#ffffff"
     id="path432" />
  <path
     d="m 159,233.1 h 4.7 v 1.2 h -2.9 v 0.9 h 2.7 v 1.1 h -2.7 v 1.1 h 3 v 1.3 H 159 Z"
     fill="#ffffff"
     id="path434" />
  <path
     d="m 164.3,233.1 h 5.3 v 1.4 h -1.8 v 4.2 h -1.7 v -4.2 h -1.8 z"
     fill="#ffffff"
     id="path436" />
  <path
     d="m 170,233.1 h 5.3 v 1.4 h -1.8 v 4.2 h -1.7 v -4.2 H 170 Z"
     fill="#ffffff"
     id="path438" />
  <path
     d="m 176.1,233.1 h 4.7 v 1.2 h -2.9 v 0.9 h 2.7 v 1.1 h -2.7 v 1.1 h 3 v 1.3 h -4.7 v -5.6 z"
     fill="#ffffff"
     id="path440" />
  <path
     d="M 985.8,459.6 H 710.2 c -6.6,0 -12,5.4 -12,12 v 14.9 c 0,6.6 5.4,12 12,12 h 275.6 c 6.6,0 12,-5.4 12,-12 v -14.9 c 0,-6.6 -5.4,-12 -12,-12 z"
     fill="#811517"
     id="path442" />
  <path
     d="m 992.8,235.6 h -3.8 -8.4 -1.4 c -0.7,0 -1.3,0.6 -1.3,1.3 v 1.3 h -0.1 c -0.6,1 -1.7,1.8 -2.9,1.8 h -1.8 c -0.5,0.8 -1.4,1.3 -2.4,1.3 H 725.9 c -1,0 -1.9,-0.5 -2.4,-1.3 h -1.8 c -1.2,0 -2.2,-0.6 -2.8,-1.6 v -1.5 c 0,-0.7 -0.6,-1.3 -1.3,-1.3 h -1.4 -8.3 -4 c -2.9,0 -5.3,2.4 -5.3,5.3 v 240.8 c 0,2.9 2.4,5.3 5.3,5.3 h 289 c 2.9,0 5.3,-2.4 5.3,-5.3 V 240.9 c -0.1,-3 -2.5,-5.3 -5.4,-5.3 z"
     fill="#c02026"
     id="path444" />
  <path
     d="m 733.2,366.9 c -4.7,0 -8.6,-3.9 -8.6,-8.6 V 242.1 c 0.4,0.1 0.8,0.2 1.3,0.2 h 244.8 c 0.5,0 1,-0.1 1.5,-0.3 v 116.3 c 0,4.7 -3.9,8.6 -8.6,8.6 z"
     fill="#c02026"
     id="path446" />
  <path
     d="m 971.2,243.3 v 115 c 0,4.2 -3.4,7.6 -7.6,7.6 H 733.2 c -4.2,0 -7.6,-3.4 -7.6,-7.6 v -115 h 0.3 244.8 z m 1.9,-3.3 c -0.5,0.8 -1.4,1.3 -2.4,1.3 H 725.9 c -0.9,0 -1.7,-0.4 -2.2,-1.1 v 0.9 117.2 c 0,5.3 4.3,9.6 9.6,9.6 h 230.4 c 5.3,0 9.6,-4.3 9.6,-9.6 V 241.1 c -0.1,-0.4 -0.1,-0.7 -0.2,-1.1 z"
     fill="#aa1f23"
     id="path448" />
  <path
     d="M 998.1,265.2 973.2,265"
     fill="#c02026"
     stroke="#aa1f23"
     stroke-miterlimit="10"
     stroke-width="2"
     id="path450" />
  <path
     d="m 998.1,274 -24.9,-0.1"
     fill="#c02026"
     stroke="#aa1f23"
     stroke-miterlimit="10"
     stroke-width="2"
     id="path452" />
  <path
     d="m 998.1,282.8 -24.9,-0.1"
     fill="#c02026"
     stroke="#aa1f23"
     stroke-miterlimit="10"
     stroke-width="2"
     id="path454" />
  <path
     d="m 998.1,291.7 -24.9,-0.1"
     fill="#c02026"
     stroke="#aa1f23"
     stroke-miterlimit="10"
     stroke-width="2"
     id="path456" />
  <path
     d="m 998.1,300.5 -24.9,-0.1"
     fill="#c02026"
     stroke="#aa1f23"
     stroke-miterlimit="10"
     stroke-width="2"
     id="path458" />
  <path
     d="m 998.1,309.4 -24.9,-0.2"
     fill="#c02026"
     stroke="#aa1f23"
     stroke-miterlimit="10"
     stroke-width="2"
     id="path460" />
  <path
     d="M 724,265.2 698.5,265"
     fill="#c02026"
     stroke="#aa1f23"
     stroke-miterlimit="10"
     stroke-width="2"
     id="path462" />
  <path
     d="m 724,274 -25.5,-0.1"
     fill="#c02026"
     stroke="#aa1f23"
     stroke-miterlimit="10"
     stroke-width="2"
     id="path464" />
  <path
     d="m 724,282.8 -25.5,-0.1"
     fill="#c02026"
     stroke="#aa1f23"
     stroke-miterlimit="10"
     stroke-width="2"
     id="path466" />
  <path
     d="m 724.1,291.7 -25.6,-0.1"
     fill="#c02026"
     stroke="#aa1f23"
     stroke-miterlimit="10"
     stroke-width="2"
     id="path468" />
  <path
     d="m 724.1,300.5 -25.6,-0.1"
     fill="#c02026"
     stroke="#aa1f23"
     stroke-miterlimit="10"
     stroke-width="2"
     id="path470" />
  <path
     d="m 724.1,309.4 -25.6,-0.2"
     fill="#c02026"
     stroke="#aa1f23"
     stroke-miterlimit="10"
     stroke-width="2"
     id="path472" />
  <path
     d="M 971.5,358.1 V 241.2 c -0.3,0.1 -0.5,0.1 -0.8,0.1 H 725.9 c -0.4,0 -0.8,-0.1 -1.2,-0.3 v 117 c 0,4.4 3.6,8.1 8.1,8.1 h 230.7 c 4.4,0 8,-3.6 8,-8 z"
     id="path474" />
  <path
     d="m 763.2,241.3 h -37.3 c -0.4,0 -0.8,-0.1 -1.2,-0.3 v 29.1 z"
     fill="#fabf13"
     id="path476" />
  <path
     d="m 869.1,284.6 v -22.8 h -33.5 v 22.8 h -9.9 v 61.2 h 53.5 v -61.2 z"
     fill="none"
     stroke="#ffffff"
     stroke-miterlimit="10"
     stroke-width="3"
     id="path478" />
  <path
     d="m 867,261.8 h -29.2 l 1.3,-3 h 26.7 z"
     fill="none"
     stroke="#ffffff"
     stroke-miterlimit="10"
     stroke-width="3"
     id="path480" />
  <path
     d="m 829.3,261.8 -3.6,3.5 v 19.3 h 7.3 v -22.8 z"
     fill="none"
     stroke="#ffffff"
     stroke-miterlimit="10"
     stroke-width="3"
     id="path482" />
  <path
     d="m 875.5,261.8 3.7,3.5 v 19.3 h -7.3 v -22.8 z"
     fill="none"
     stroke="#ffffff"
     stroke-miterlimit="10"
     stroke-width="3"
     id="path484" />
  <path
     d="m 833,263.3 h 2.6"
     fill="none"
     stroke="#ffffff"
     stroke-miterlimit="10"
     stroke-width="3"
     id="path486" />
  <path
     d="m 869.1,263.3 h 2.8"
     fill="none"
     stroke="#ffffff"
     stroke-miterlimit="10"
     stroke-width="3"
     id="path488" />
  <path
     d="m 871.9,269.3 h 7.3"
     fill="none"
     stroke="#ffffff"
     stroke-miterlimit="10"
     stroke-width="3"
     id="path490" />
  <path
     d="m 835.6,269.3 h 33.5"
     fill="none"
     stroke="#ffffff"
     stroke-miterlimit="10"
     stroke-width="3"
     id="path492" />
  <path
     d="M 825.7,269.3 H 833"
     fill="none"
     stroke="#ffffff"
     stroke-miterlimit="10"
     stroke-width="3"
     id="path494" />
  <path
     d="m 871.9,271.5 h 7.3"
     fill="none"
     stroke="#ffffff"
     stroke-miterlimit="10"
     stroke-width="3"
     id="path496" />
  <path
     d="m 835.6,271.5 h 33.5"
     fill="none"
     stroke="#ffffff"
     stroke-miterlimit="10"
     stroke-width="3"
     id="path498" />
  <path
     d="M 825.7,271.5 H 833"
     fill="none"
     stroke="#ffffff"
     stroke-miterlimit="10"
     stroke-width="3"
     id="path500" />
  <path
     d="m 871.9,273.7 h 7.3"
     fill="none"
     stroke="#ffffff"
     stroke-miterlimit="10"
     stroke-width="3"
     id="path502" />
  <path
     d="m 835.6,273.7 h 33.5"
     fill="none"
     stroke="#ffffff"
     stroke-miterlimit="10"
     stroke-width="3"
     id="path504" />
  <path
     d="M 825.7,273.7 H 833"
     fill="none"
     stroke="#ffffff"
     stroke-miterlimit="10"
     stroke-width="3"
     id="path506" />
  <path
     d="m 871.9,275.9 h 7.3"
     fill="none"
     stroke="#ffffff"
     stroke-miterlimit="10"
     stroke-width="3"
     id="path508" />
  <path
     d="m 835.6,275.9 h 33.5"
     fill="none"
     stroke="#ffffff"
     stroke-miterlimit="10"
     stroke-width="3"
     id="path510" />
  <path
     d="M 825.7,275.9 H 833"
     fill="none"
     stroke="#ffffff"
     stroke-miterlimit="10"
     stroke-width="3"
     id="path512" />
  <path
     d="m 871.9,278.1 h 7.3"
     fill="none"
     stroke="#ffffff"
     stroke-miterlimit="10"
     stroke-width="3"
     id="path514" />
  <path
     d="m 835.6,278.1 h 33.5"
     fill="none"
     stroke="#ffffff"
     stroke-miterlimit="10"
     stroke-width="3"
     id="path516" />
  <path
     d="M 825.7,278.1 H 833"
     fill="none"
     stroke="#ffffff"
     stroke-miterlimit="10"
     stroke-width="3"
     id="path518" />
  <circle
     cx="852.40002"
     cy="319.10001"
     fill="none"
     r="8.6999998"
     stroke="#ffffff"
     stroke-miterlimit="10"
     stroke-width="3"
     id="circle520" />
  <circle
     cx="852.40002"
     cy="319.10001"
     fill="#ffffff"
     r="6.1999998"
     id="circle522" />
  <circle
     cx="852.40002"
     cy="319.10001"
     fill="none"
     r="14"
     stroke="#ffffff"
     stroke-miterlimit="10"
     stroke-width="3"
     id="circle524" />
  <g
     fill="#ffffff"
     id="g692">
    <path
       d="m 831,316.4 v -2.7 l -4.2,5.4 4.2,5.4 v -2.7 h 5.6 v -2.7 -2.7 z"
       id="path526" />
    <path
       d="m 873.6,321.8 v 2.7 l 4.2,-5.4 -4.2,-5.4 v 2.7 H 868 v 2.7 2.7 z"
       id="path528" />
    <path
       d="m 899.9,321.8 v 2.7 l 4.2,-5.4 -4.2,-5.4 v 2.7 h -5.6 v 2.7 2.7 z"
       id="path530" />
    <path
       d="m 886,316.4 v -2.7 l -4.2,5.4 4.2,5.4 v -2.7 h 5.6 v -2.7 -2.7 z"
       id="path532" />
    <path
       d="m 886,271 v -2.7 l -4.2,5.4 4.2,5.4 v -2.7 h 5.6 v -2.7 -2.7 z"
       id="path534" />
    <path
       d="m 819.6,275.9 v 2.7 l 4.2,-5.4 -4.2,-5.4 v 2.7 H 814 v 2.7 2.7 z"
       id="path536" />
    <path
       d="m 814.2,332.9 h -2.7 l 5.4,4.2 5.4,-4.2 h -2.7 v -5.6 h -2.7 -2.7 z"
       id="path538" />
    <path
       d="M 849.7,340.2 H 847 l 5.4,4.2 5.4,-4.2 h -2.7 v -5.6 h -2.7 -2.7 z"
       id="path540" />
    <path
       d="m 778.3,266.9 h 4.9 v 1.9 h -2.7 v 2.9 h 2.6 v 1.8 h -2.6 v 4.7 h -2.2 z"
       id="path542" />
    <path
       d="m 784.8,267 c 0.7,-0.1 1.6,-0.2 2.4,-0.2 1.2,0 2.3,0.2 3,0.8 0.7,0.6 0.9,1.4 0.9,2.4 0,1.2 -0.6,2.3 -1.7,2.8 0.8,0.3 1.2,1 1.4,2.2 0.2,1.3 0.5,2.7 0.7,3.1 h -2.3 c -0.1,-0.3 -0.4,-1.5 -0.6,-2.7 -0.2,-1.4 -0.6,-1.8 -1.3,-1.8 H 787 v 4.5 h -2.2 z m 2.2,5 h 0.4 c 1,0 1.5,-0.8 1.5,-1.8 0,-1 -0.4,-1.6 -1.4,-1.7 -0.2,0 -0.4,0 -0.5,0.1 z"
       id="path544" />
    <path
       d="m 797.5,273.2 h -2.6 v 3.1 h 2.9 v 1.9 h -5.1 v -11.3 h 4.9 v 1.9 h -2.7 v 2.6 h 2.6 z"
       id="path546" />
    <path
       d="m 801.6,266.9 v 11.3 h -2.2 v -11.3 z"
       id="path548" />
    <path
       d="m 803.5,278.2 v -11.3 h 2 l 1.7,4.4 c 0.3,0.9 0.9,2.3 1.2,3.3 -0.1,-1.2 -0.2,-3.2 -0.2,-5.2 v -2.5 h 1.9 v 11.3 h -2 l -1.7,-4.3 c -0.4,-1 -0.9,-2.4 -1.1,-3.4 0.1,1.1 0.1,2.9 0.1,5.2 v 2.6 h -1.9 z"
       id="path550" />
    <path
       d="m 896.8,277 -0.5,2.6 h -1.9 l 2.2,-11.3 h 2.4 l 2,11.3 h -1.9 l -0.4,-2.6 z m 1.7,-1.7 -0.3,-2.4 c -0.1,-0.7 -0.2,-1.8 -0.3,-2.6 -0.1,0.8 -0.3,1.9 -0.4,2.6 l -0.4,2.4 z"
       id="path552" />
    <path
       d="m 906.8,279.4 c -0.3,0.2 -0.9,0.3 -1.5,0.3 -2.6,0 -3.9,-2.4 -3.9,-5.6 0,-4.3 2.1,-5.9 4.1,-5.9 0.7,0 1.2,0.2 1.4,0.3 l -0.3,1.8 c -0.2,-0.1 -0.5,-0.2 -0.9,-0.2 -1.1,0 -2.1,1.1 -2.1,3.9 0,2.7 0.9,3.8 2.1,3.8 0.3,0 0.7,-0.1 1,-0.2 z"
       id="path554" />
    <path
       d="m 912.6,279.4 c -0.3,0.2 -0.9,0.3 -1.5,0.3 -2.6,0 -3.9,-2.4 -3.9,-5.6 0,-4.3 2.1,-5.9 4.1,-5.9 0.7,0 1.2,0.2 1.4,0.3 l -0.3,1.8 c -0.2,-0.1 -0.5,-0.2 -0.9,-0.2 -1.1,0 -2.1,1.1 -2.1,3.9 0,2.7 0.9,3.8 2.1,3.8 0.3,0 0.7,-0.1 1,-0.2 z"
       id="path556" />
    <path
       d="m 918,274.6 h -2.3 v 3.1 h 2.6 v 1.9 h -4.6 v -11.3 h 4.4 v 1.9 h -2.5 v 2.6 h 2.3 v 1.8 z"
       id="path558" />
    <path
       d="m 919.7,268.2 h 2 v 9.5 h 2.6 v 1.9 h -4.6 z"
       id="path560" />
    <path
       d="m 929.8,274.6 h -2.3 v 3.1 h 2.6 v 1.9 h -4.6 v -11.3 h 4.4 v 1.9 h -2.5 v 2.6 h 2.3 v 1.8 z"
       id="path562" />
    <path
       d="m 931.4,268.4 c 0.6,-0.1 1.4,-0.2 2.2,-0.2 1.1,0 2.1,0.2 2.7,0.8 0.6,0.6 0.8,1.4 0.8,2.4 0,1.2 -0.5,2.3 -1.6,2.8 0.7,0.3 1,1 1.2,2.2 0.2,1.3 0.5,2.7 0.7,3.1 h -2.1 c -0.1,-0.3 -0.3,-1.5 -0.5,-2.7 -0.2,-1.4 -0.5,-1.8 -1.2,-1.8 h -0.3 v 4.5 h -2 v -11.1 z m 2,5 h 0.3 c 0.9,0 1.4,-0.8 1.4,-1.8 0,-1 -0.3,-1.6 -1.2,-1.7 -0.2,0 -0.4,0 -0.5,0.1 z"
       id="path564" />
    <path
       d="m 940.2,277 -0.5,2.6 h -1.9 l 2.2,-11.3 h 2.4 l 2,11.3 h -1.9 L 942,277 Z m 1.6,-1.7 -0.3,-2.4 c -0.1,-0.7 -0.2,-1.8 -0.3,-2.6 -0.1,0.8 -0.3,1.9 -0.4,2.6 l -0.4,2.4 z"
       id="path566" />
    <path
       d="m 945.9,270.3 h -1.8 v -2 h 5.6 v 2 h -1.8 v 9.3 h -2 z"
       id="path568" />
    <path
       d="m 955.1,274.6 h -2.3 v 3.1 h 2.6 v 1.9 h -4.6 v -11.3 h 4.4 v 1.9 h -2.5 v 2.6 h 2.3 v 1.8 z"
       id="path570" />
    <path
       d="m 958.6,268.2 v 7.4 c 0,1.7 0.5,2.2 1,2.2 0.6,0 1,-0.5 1,-2.2 v -7.4 h 2 v 7 c 0,2.9 -1,4.5 -3,4.5 -2.1,0 -3,-1.6 -3,-4.5 v -7 z"
       id="path572" />
    <path
       d="m 964.3,268.4 c 0.6,-0.1 1.4,-0.2 2.2,-0.2 1.1,0 2.1,0.2 2.7,0.8 0.6,0.6 0.8,1.4 0.8,2.4 0,1.2 -0.5,2.3 -1.6,2.8 0.7,0.3 1,1 1.2,2.2 0.2,1.3 0.5,2.7 0.7,3.1 h -2.1 c -0.1,-0.3 -0.3,-1.5 -0.5,-2.7 -0.2,-1.4 -0.5,-1.8 -1.2,-1.8 h -0.3 v 4.5 h -2 v -11.1 z m 2,5 h 0.3 c 0.9,0 1.4,-0.8 1.4,-1.8 0,-1 -0.3,-1.6 -1.2,-1.7 -0.2,0 -0.4,0 -0.5,0.1 z"
       id="path574" />
    <path
       d="m 905.1,314.1 c 0.6,-0.1 1.4,-0.2 2.2,-0.2 1.4,0 2.4,0.3 3.1,1 1,0.9 1.5,2.4 1.5,4.6 0,2.3 -0.6,3.9 -1.6,4.8 -0.8,0.7 -1.9,1.1 -3.5,1.1 -0.7,0 -1.4,-0.1 -1.8,-0.1 v -11.2 z m 2.2,9.4 h 0.4 c 1.1,0 2,-1 2,-4.2 0,-2.3 -0.6,-3.7 -1.9,-3.7 -0.2,0 -0.3,0 -0.4,0.1 v 7.8 z"
       id="path576" />
    <path
       d="m 915.5,313.9 v 11.3 h -2.2 v -11.3 z"
       id="path578" />
    <path
       d="m 917.5,314.1 c 0.7,-0.1 1.6,-0.2 2.4,-0.2 1.2,0 2.3,0.2 3,0.8 0.7,0.6 0.9,1.4 0.9,2.4 0,1.2 -0.6,2.3 -1.7,2.8 0.8,0.3 1.2,1 1.4,2.2 0.2,1.3 0.5,2.7 0.7,3.1 h -2.3 c -0.1,-0.3 -0.4,-1.5 -0.6,-2.7 -0.2,-1.4 -0.6,-1.8 -1.3,-1.8 h -0.3 v 4.5 h -2.2 z m 2.2,4.9 h 0.4 c 1,0 1.5,-0.8 1.5,-1.8 0,-1 -0.4,-1.6 -1.4,-1.7 -0.2,0 -0.4,0 -0.5,0.1 z"
       id="path580" />
    <path
       d="m 930.2,320.3 h -2.6 v 3.1 h 2.9 v 1.9 h -5.1 V 314 h 4.9 v 1.9 h -2.7 v 2.6 h 2.6 z"
       id="path582" />
    <path
       d="m 937.4,325.1 c -0.3,0.2 -0.9,0.3 -1.7,0.3 -2.9,0 -4.3,-2.4 -4.3,-5.6 0,-4.3 2.4,-5.9 4.6,-5.9 0.8,0 1.3,0.2 1.5,0.3 l -0.4,1.8 c -0.3,-0.1 -0.5,-0.2 -1,-0.2 -1.2,0 -2.4,1.1 -2.4,3.9 0,2.7 1,3.8 2.4,3.8 0.4,0 0.8,-0.1 1.1,-0.2 z"
       id="path584" />
    <path
       d="m 940.3,316 h -2 v -2 h 6.2 v 2 h -2 v 9.3 h -2.2 z"
       id="path586" />
    <path
       d="m 947.9,313.9 v 11.3 h -2.2 v -11.3 z"
       id="path588" />
    <path
       d="m 956.5,319.4 c 0,4.3 -1.5,6 -3.7,6 -2.6,0 -3.6,-2.7 -3.6,-5.8 0,-3.1 1.2,-5.8 3.7,-5.8 2.8,0 3.6,3 3.6,5.6 z m -5,0.2 c 0,2.6 0.5,3.9 1.4,3.9 0.9,0 1.3,-1.7 1.3,-4 0,-2 -0.3,-3.8 -1.3,-3.8 -0.9,0 -1.4,1.5 -1.4,3.9 z"
       id="path590" />
    <path
       d="M 957.9,325.3 V 314 h 2 l 1.7,4.4 c 0.3,0.9 0.9,2.3 1.2,3.3 -0.1,-1.2 -0.2,-3.2 -0.2,-5.2 V 314 h 1.9 v 11.3 h -2 l -1.7,-4.3 c -0.4,-1 -0.9,-2.4 -1.1,-3.4 0.1,1.1 0.1,2.9 0.1,5.2 v 2.6 h -1.9 z"
       id="path592" />
    <path
       d="m 734.6,321.9 -0.5,2.6 h -2 l 2.4,-11.3 h 2.5 l 2.1,11.3 h -2 l -0.5,-2.6 z m 1.7,-1.7 -0.4,-2.4 c -0.1,-0.7 -0.3,-1.8 -0.4,-2.6 -0.1,0.8 -0.3,1.9 -0.4,2.6 l -0.4,2.4 z"
       id="path594" />
    <path
       d="m 745.2,324.3 c -0.3,0.2 -0.9,0.3 -1.6,0.3 -2.8,0 -4.1,-2.4 -4.1,-5.6 0,-4.3 2.3,-5.9 4.4,-5.9 0.7,0 1.3,0.2 1.5,0.3 l -0.4,1.8 c -0.2,-0.1 -0.5,-0.2 -1,-0.2 -1.2,0 -2.3,1.1 -2.3,3.9 0,2.7 1,3.8 2.3,3.8 0.4,0 0.8,-0.1 1,-0.2 z"
       id="path596" />
    <path
       d="m 751.4,324.3 c -0.3,0.2 -0.9,0.3 -1.6,0.3 -2.8,0 -4.1,-2.4 -4.1,-5.6 0,-4.3 2.3,-5.9 4.4,-5.9 0.7,0 1.3,0.2 1.5,0.3 l -0.4,1.8 c -0.2,-0.1 -0.5,-0.2 -1,-0.2 -1.2,0 -2.3,1.1 -2.3,3.9 0,2.7 1,3.8 2.3,3.8 0.4,0 0.8,-0.1 1,-0.2 z"
       id="path598" />
    <path
       d="m 752.3,323.2 c 0,-0.8 0.6,-1.5 1.2,-1.5 0.7,0 1.2,0.6 1.2,1.5 0,0.9 -0.5,1.5 -1.2,1.5 -0.6,-0.1 -1.2,-0.7 -1.2,-1.5 z"
       id="path600" />
    <path
       d="m 764,324.3 c -0.3,0.2 -0.9,0.3 -1.6,0.3 -2.8,0 -4.1,-2.4 -4.1,-5.6 0,-4.3 2.3,-5.9 4.4,-5.9 0.7,0 1.3,0.2 1.5,0.3 l -0.4,1.8 c -0.2,-0.1 -0.5,-0.2 -1,-0.2 -1.2,0 -2.3,1.1 -2.3,3.9 0,2.7 1,3.8 2.3,3.8 0.4,0 0.8,-0.1 1,-0.2 z"
       id="path602" />
    <path
       d="m 767.3,313.2 v 4.5 h 2.2 v -4.5 h 2.1 v 11.3 h -2.1 v -4.7 h -2.2 v 4.7 h -2.1 v -11.3 z"
       id="path604" />
    <path
       d="m 775.2,321.9 -0.5,2.6 h -2 l 2.4,-11.3 h 2.5 l 2.1,11.3 h -2 l -0.5,-2.6 z m 1.8,-1.7 -0.4,-2.4 c -0.1,-0.7 -0.3,-1.8 -0.4,-2.6 -0.1,0.8 -0.3,1.9 -0.4,2.6 l -0.4,2.4 z"
       id="path606" />
    <path
       d="m 780.9,313.3 c 0.6,-0.1 1.4,-0.2 2.2,-0.2 1.3,0 2.2,0.2 2.9,0.9 0.6,0.6 0.9,1.5 0.9,2.5 0,1.2 -0.4,2.1 -0.9,2.7 -0.7,0.7 -1.8,1.1 -2.6,1.1 -0.1,0 -0.3,0 -0.4,0 v 4.2 h -2.1 z m 2.1,5.2 h 0.3 c 1.1,0 1.5,-0.8 1.5,-1.8 0,-1 -0.4,-1.8 -1.4,-1.8 -0.2,0 -0.4,0 -0.5,0.1 v 3.5 z"
       id="path608" />
    <path
       d="m 792.8,319.5 h -2.5 v 3.1 h 2.8 v 1.9 h -4.9 v -11.3 h 4.7 v 1.9 h -2.6 v 2.6 h 2.5 z"
       id="path610" />
    <path
       d="m 796.3,321.9 -0.5,2.6 h -2 l 2.4,-11.3 h 2.5 l 2.1,11.3 h -2 l -0.5,-2.6 z m 1.8,-1.7 -0.4,-2.4 c -0.1,-0.7 -0.3,-1.8 -0.4,-2.6 -0.1,0.8 -0.3,1.9 -0.4,2.6 l -0.4,2.4 z"
       id="path612" />
    <path
       d="m 803.7,313.2 v 7.4 c 0,1.7 0.5,2.2 1,2.2 0.6,0 1,-0.5 1,-2.2 v -7.4 h 2.1 v 7 c 0,2.9 -1,4.5 -3.1,4.5 -2.3,0 -3.2,-1.6 -3.2,-4.5 v -7 z"
       id="path614" />
    <path
       d="m 755.4,328.4 c 0.6,-0.1 1.4,-0.2 2.2,-0.2 1.4,0 2.4,0.3 3.1,1 1,0.9 1.5,2.4 1.5,4.6 0,2.3 -0.6,3.9 -1.6,4.8 -0.8,0.7 -1.9,1.1 -3.5,1.1 -0.7,0 -1.4,-0.1 -1.8,-0.1 v -11.2 z m 2.2,9.4 h 0.4 c 1.1,0 2,-1 2,-4.2 0,-2.3 -0.6,-3.7 -1.9,-3.7 -0.2,0 -0.3,0 -0.4,0.1 v 7.8 z"
       id="path616" />
    <path
       d="m 768.5,334.5 h -2.6 v 3.1 h 2.9 v 1.9 h -5.1 v -11.3 h 4.9 v 1.9 h -2.7 v 2.6 h 2.6 z"
       id="path618" />
    <path
       d="m 773,328.4 c 0.7,-0.1 1.6,-0.2 2.4,-0.2 1.2,0 2.3,0.2 3,0.8 0.7,0.6 0.9,1.4 0.9,2.4 0,1.2 -0.6,2.3 -1.7,2.8 0.8,0.3 1.2,1 1.4,2.2 0.2,1.3 0.5,2.7 0.7,3.1 h -2.3 c -0.1,-0.3 -0.4,-1.5 -0.6,-2.7 -0.2,-1.4 -0.6,-1.8 -1.3,-1.8 h -0.3 v 4.5 H 773 Z m 2.2,4.9 h 0.4 c 1,0 1.5,-0.8 1.5,-1.8 0,-1 -0.4,-1.6 -1.4,-1.7 -0.2,0 -0.4,0 -0.5,0.1 z"
       id="path620" />
    <path
       d="m 787.5,333.7 c 0,4.3 -1.5,6 -3.7,6 -2.6,0 -3.6,-2.7 -3.6,-5.8 0,-3.1 1.2,-5.8 3.7,-5.8 2.9,0 3.6,3 3.6,5.6 z m -4.9,0.2 c 0,2.6 0.5,3.9 1.4,3.9 0.9,0 1.3,-1.7 1.3,-4 0,-2 -0.3,-3.8 -1.3,-3.8 -0.9,0 -1.4,1.4 -1.4,3.9 z"
       id="path622" />
    <path
       d="m 791.1,328.2 v 7.4 c 0,1.7 0.5,2.2 1.1,2.2 0.6,0 1.1,-0.5 1.1,-2.2 v -7.4 h 2.2 v 7 c 0,2.9 -1.1,4.5 -3.3,4.5 -2.4,0 -3.3,-1.6 -3.3,-4.5 v -7 z"
       id="path624" />
    <path
       d="m 802.1,334.5 h -2.6 v 3.1 h 2.9 v 1.9 h -5.1 v -11.3 h 4.9 v 1.9 h -2.7 v 2.6 h 2.6 z"
       id="path626" />
    <path
       d="m 803.7,337.3 c 0.5,0.3 1.2,0.4 1.9,0.4 1,0 1.5,-0.5 1.5,-1.3 0,-0.8 -0.5,-1.2 -1.5,-1.8 -1.5,-0.9 -2.1,-2.1 -2.1,-3.2 0,-1.8 1.2,-3.3 3.6,-3.3 0.7,0 1.4,0.2 1.8,0.4 l -0.4,1.9 c -0.3,-0.2 -0.8,-0.4 -1.4,-0.4 -0.9,0 -1.4,0.6 -1.4,1.2 0,0.7 0.3,1 1.6,1.8 1.5,0.9 2,2 2,3.2 0,2.1 -1.5,3.4 -3.7,3.4 -0.9,0 -1.8,-0.2 -2.2,-0.5 z"
       id="path628" />
    <path
       d="m 747.8,362.3 h -0.9 v -3.9 c -0.3,0.4 -0.7,0.6 -1.2,0.8 v -0.9 c 0.3,-0.1 0.5,-0.3 0.8,-0.5 0.3,-0.2 0.5,-0.5 0.6,-0.8 h 0.7 z"
       id="path630" />
    <path
       d="m 749.2,361.1 0.9,-0.1 c 0,0.4 0.2,0.6 0.5,0.6 0.2,0 0.4,-0.1 0.5,-0.3 0.1,-0.2 0.2,-0.6 0.3,-1.2 -0.1,0.1 -0.2,0.3 -0.4,0.3 -0.1,0.1 -0.3,0.1 -0.5,0.1 -0.4,0 -0.7,-0.2 -1,-0.5 -0.3,-0.3 -0.4,-0.7 -0.4,-1.3 0,-0.6 0.1,-1 0.4,-1.3 0.3,-0.3 0.7,-0.5 1.1,-0.5 0.5,0 0.9,0.2 1.2,0.6 0.3,0.4 0.5,1.1 0.5,2.1 0,1 -0.2,1.7 -0.5,2.1 -0.3,0.4 -0.8,0.6 -1.3,0.6 -0.4,0 -0.7,-0.1 -0.9,-0.3 -0.1,-0.1 -0.3,-0.5 -0.4,-0.9 z m 2.1,-2.3 c 0,-0.3 -0.1,-0.6 -0.2,-0.8 -0.1,-0.2 -0.3,-0.3 -0.5,-0.3 -0.2,0 -0.3,0.1 -0.4,0.2 -0.1,0.1 -0.2,0.4 -0.2,0.7 0,0.3 0.1,0.6 0.2,0.8 0.1,0.2 0.3,0.2 0.5,0.2 0.2,0 0.3,-0.1 0.4,-0.2 0.2,0 0.2,-0.3 0.2,-0.6 z"
       id="path632" />
    <path
       d="m 753.8,359.4 c -0.2,-0.1 -0.4,-0.3 -0.5,-0.4 -0.1,-0.2 -0.2,-0.4 -0.2,-0.7 0,-0.4 0.1,-0.8 0.4,-1 0.3,-0.2 0.6,-0.4 1.1,-0.4 0.5,0 0.8,0.1 1.1,0.4 0.2,0.3 0.4,0.6 0.4,1 0,0.3 -0.1,0.5 -0.2,0.7 -0.1,0.2 -0.3,0.3 -0.5,0.4 0.3,0.1 0.5,0.3 0.6,0.5 0.1,0.2 0.2,0.5 0.2,0.8 0,0.3 -0.1,0.6 -0.2,0.9 -0.1,0.3 -0.3,0.4 -0.6,0.6 -0.2,0.1 -0.5,0.2 -0.8,0.2 -0.5,0 -0.9,-0.1 -1.2,-0.4 -0.3,-0.3 -0.5,-0.7 -0.5,-1.2 0,-0.3 0.1,-0.6 0.2,-0.8 0.2,-0.3 0.4,-0.4 0.7,-0.6 z m 0.1,1.3 c 0,0.3 0.1,0.5 0.2,0.7 0.1,0.2 0.3,0.2 0.5,0.2 0.2,0 0.3,-0.1 0.5,-0.2 0.1,-0.1 0.2,-0.4 0.2,-0.7 0,-0.3 -0.1,-0.5 -0.2,-0.6 -0.1,-0.1 -0.3,-0.2 -0.5,-0.2 -0.2,0 -0.3,0.1 -0.5,0.2 -0.2,0.1 -0.2,0.3 -0.2,0.6 z m 0.1,-2.3 c 0,0.2 0.1,0.4 0.2,0.5 0.1,0.1 0.2,0.2 0.4,0.2 0.2,0 0.3,-0.1 0.4,-0.2 0.1,-0.1 0.2,-0.3 0.2,-0.5 0,-0.2 -0.1,-0.4 -0.2,-0.5 -0.1,-0.1 -0.2,-0.2 -0.4,-0.2 -0.2,0 -0.3,0.1 -0.4,0.2 -0.2,0.1 -0.2,0.3 -0.2,0.5 z"
       id="path634" />
    <path
       d="m 756.7,360.9 0.9,-0.1 c 0,0.2 0.1,0.4 0.2,0.6 0.1,0.1 0.3,0.2 0.4,0.2 0.2,0 0.4,-0.1 0.5,-0.3 0.1,-0.2 0.2,-0.4 0.2,-0.8 0,-0.3 -0.1,-0.6 -0.2,-0.7 -0.1,-0.2 -0.3,-0.2 -0.5,-0.2 -0.3,0 -0.5,0.1 -0.7,0.4 l -0.8,-0.1 0.5,-2.8 h 2.4 v 1 H 758 l -0.2,0.9 c 0.2,-0.1 0.4,-0.2 0.6,-0.2 0.4,0 0.7,0.1 1,0.4 0.3,0.3 0.5,0.8 0.5,1.4 0,0.5 -0.1,0.9 -0.4,1.3 -0.3,0.4 -0.7,0.6 -1.2,0.6 -0.4,0 -0.8,-0.1 -1.1,-0.4 -0.2,-0.3 -0.4,-0.7 -0.5,-1.2 z"
       id="path636" />
    <path
       d="M 762.6,362.3 V 357 h 3.6 v 0.9 h -2.6 v 1.2 h 2.4 v 0.9 h -2.4 v 1.5 h 2.7 v 0.9 h -3.7 z"
       id="path638" />
    <path
       d="M 767,362.3 V 357 h 1.6 c 0.6,0 1,0 1.1,0.1 0.3,0.1 0.5,0.3 0.7,0.5 0.2,0.3 0.3,0.6 0.3,1 0,0.4 -0.1,0.7 -0.2,1 -0.2,0.3 -0.4,0.4 -0.6,0.6 -0.2,0.1 -0.7,0.2 -1.2,0.2 H 768 v 2 h -1 z m 1,-4.4 v 1.5 h 0.5 c 0.4,0 0.6,0 0.7,-0.1 0.1,0 0.2,-0.1 0.3,-0.3 0.1,-0.1 0.1,-0.3 0.1,-0.4 0,-0.2 0,-0.3 -0.1,-0.5 -0.1,-0.2 -0.2,-0.2 -0.3,-0.2 -0.1,0 -0.4,-0.1 -0.8,-0.1 H 768 Z"
       id="path640" />
    <path
       d="m 771.4,359.7 c 0,-0.6 0.1,-1.2 0.3,-1.6 0.2,-0.4 0.5,-0.7 0.8,-0.9 0.3,-0.2 0.7,-0.3 1.2,-0.3 0.7,0 1.3,0.2 1.7,0.7 0.4,0.5 0.7,1.2 0.7,2 0,0.9 -0.2,1.6 -0.7,2.1 -0.4,0.4 -1,0.7 -1.6,0.7 -0.7,0 -1.3,-0.2 -1.7,-0.7 -0.5,-0.5 -0.7,-1.1 -0.7,-2 z m 1,-0.1 c 0,0.6 0.1,1.1 0.4,1.4 0.3,0.3 0.6,0.5 1,0.5 0.4,0 0.7,-0.2 1,-0.5 0.3,-0.3 0.4,-0.8 0.4,-1.4 0,-0.6 -0.1,-1.1 -0.4,-1.4 -0.2,-0.3 -0.6,-0.4 -1,-0.4 -0.4,0 -0.7,0.1 -1,0.4 -0.3,0.3 -0.4,0.8 -0.4,1.4 z"
       id="path642" />
    <path
       d="m 779.9,360.4 0.9,0.3 c -0.1,0.6 -0.4,1 -0.7,1.3 -0.3,0.3 -0.8,0.4 -1.3,0.4 -0.6,0 -1.1,-0.2 -1.5,-0.7 -0.4,-0.5 -0.7,-1.2 -0.7,-2.1 0,-0.9 0.2,-1.6 0.7,-2.1 0.4,-0.4 0.9,-0.7 1.6,-0.7 0.5,0 1,0.2 1.4,0.5 0.3,0.2 0.5,0.6 0.6,1.1 l -1,0.3 c -0.1,-0.3 -0.2,-0.5 -0.4,-0.7 -0.2,-0.2 -0.4,-0.2 -0.6,-0.2 -0.4,0 -0.6,0.1 -0.9,0.4 -0.2,0.3 -0.3,0.7 -0.3,1.4 0,0.7 0.1,1.2 0.3,1.4 0.2,0.3 0.5,0.4 0.9,0.4 0.3,0 0.5,-0.1 0.7,-0.3 0.1,-0.1 0.2,-0.4 0.3,-0.7 z"
       id="path644" />
    <path
       d="M 781.7,362.3 V 357 h 1 v 2.1 h 1.9 V 357 h 1 v 5.4 h -1 V 360 h -1.9 v 2.3 z"
       id="path646" />
    <path
       d="m 791.5,360.4 0.9,0.3 c -0.1,0.6 -0.4,1 -0.7,1.3 -0.3,0.3 -0.8,0.4 -1.3,0.4 -0.6,0 -1.1,-0.2 -1.5,-0.7 -0.4,-0.5 -0.7,-1.2 -0.7,-2.1 0,-0.9 0.2,-1.6 0.7,-2.1 0.4,-0.4 0.9,-0.7 1.6,-0.7 0.5,0 1,0.2 1.4,0.5 0.3,0.2 0.5,0.6 0.6,1.1 l -1,0.3 c -0.1,-0.3 -0.2,-0.5 -0.4,-0.7 -0.2,-0.2 -0.4,-0.2 -0.6,-0.2 -0.4,0 -0.6,0.1 -0.9,0.4 -0.2,0.3 -0.3,0.7 -0.3,1.4 0,0.7 0.1,1.2 0.3,1.4 0.2,0.3 0.5,0.4 0.9,0.4 0.3,0 0.5,-0.1 0.7,-0.3 0.1,-0.1 0.2,-0.4 0.3,-0.7 z"
       id="path648" />
    <path
       d="m 793.1,359.7 c 0,-0.6 0.1,-1.2 0.3,-1.6 0.2,-0.4 0.5,-0.7 0.8,-0.9 0.3,-0.2 0.7,-0.3 1.2,-0.3 0.7,0 1.3,0.2 1.7,0.7 0.4,0.5 0.7,1.2 0.7,2 0,0.9 -0.2,1.6 -0.7,2.1 -0.4,0.4 -1,0.7 -1.6,0.7 -0.7,0 -1.3,-0.2 -1.7,-0.7 -0.5,-0.5 -0.7,-1.1 -0.7,-2 z m 1,-0.1 c 0,0.6 0.1,1.1 0.4,1.4 0.3,0.3 0.6,0.5 1,0.5 0.4,0 0.7,-0.2 1,-0.5 0.3,-0.3 0.4,-0.8 0.4,-1.4 0,-0.6 -0.1,-1.1 -0.4,-1.4 -0.2,-0.3 -0.6,-0.4 -1,-0.4 -0.4,0 -0.7,0.1 -1,0.4 -0.3,0.3 -0.4,0.8 -0.4,1.4 z"
       id="path650" />
    <path
       d="m 798.5,362.3 v -1 h 0.9 v 1 z"
       id="path652" />
    <path
       d="M 800.4,362.3 V 357 h 1 v 4.4 h 2.4 v 0.9 z"
       id="path654" />
    <path
       d="m 805.1,362.3 v -4.4 h -1.4 V 357 h 3.8 v 0.9 h -1.4 v 4.4 z"
       id="path656" />
    <path
       d="m 808.1,357 h 1.8 c 0.4,0 0.8,0 1,0.1 0.2,0.1 0.4,0.2 0.6,0.5 0.2,0.2 0.3,0.5 0.5,0.8 0.1,0.3 0.2,0.8 0.2,1.3 0,0.5 -0.1,0.9 -0.2,1.2 -0.1,0.3 -0.3,0.6 -0.4,0.8 -0.2,0.2 -0.4,0.4 -0.6,0.5 -0.3,0.1 -0.6,0.2 -1,0.2 h -1.8 V 357 Z m 1,0.9 v 3.5 h 0.7 c 0.3,0 0.5,0 0.7,-0.1 0.1,-0.1 0.3,-0.1 0.3,-0.2 0.1,-0.1 0.2,-0.3 0.2,-0.5 0.1,-0.2 0.1,-0.5 0.1,-0.9 0,-0.4 0,-0.7 -0.1,-0.9 -0.1,-0.2 -0.2,-0.4 -0.3,-0.5 -0.1,-0.1 -0.3,-0.2 -0.5,-0.3 -0.1,0 -0.4,0 -0.8,0 h -0.3 z"
       id="path658" />
    <path
       d="M 816.8,362.3 V 357 h 3.3 v 0.9 h -2.3 v 1.3 h 2 v 0.9 h -2 v 2.3 h -1 z"
       id="path660" />
    <path
       d="m 824.9,362.3 h -1.1 l -0.4,-1.2 h -1.9 l -0.4,1.2 h -1 l 1.9,-5.4 h 1 z m -1.8,-2.1 -0.7,-2 -0.7,2 z"
       id="path662" />
    <path
       d="m 825.4,357 h 1.9 c 0.5,0 0.9,0 1.1,0.1 0.2,0.1 0.4,0.2 0.5,0.5 0.1,0.2 0.2,0.5 0.2,0.8 0,0.3 -0.1,0.5 -0.2,0.7 -0.1,0.2 -0.3,0.4 -0.5,0.5 0.3,0.1 0.5,0.3 0.7,0.5 0.2,0.2 0.2,0.5 0.2,0.8 0,0.4 -0.1,0.7 -0.3,1 -0.2,0.3 -0.4,0.4 -0.7,0.5 -0.2,0 -0.6,0.1 -1.4,0.1 h -1.6 V 357 Z m 1,0.9 v 1.2 h 0.6 0.7 c 0.2,0 0.3,-0.1 0.4,-0.2 0.1,-0.1 0.1,-0.2 0.1,-0.4 0,-0.2 0,-0.3 -0.1,-0.4 -0.1,-0.1 -0.2,-0.2 -0.3,-0.2 -0.1,0 -0.4,0 -0.9,0 z m 0,2.1 v 1.4 h 0.9 c 0.4,0 0.7,0 0.8,-0.1 0.1,0 0.2,-0.1 0.3,-0.2 0.1,-0.1 0.1,-0.3 0.1,-0.4 0,-0.2 0,-0.3 -0.1,-0.4 -0.1,-0.1 -0.2,-0.2 -0.3,-0.2 -0.1,0 -0.4,-0.1 -0.8,-0.1 z"
       id="path664" />
    <path
       d="M 830.3,362.3 V 357 h 2.1 c 0.5,0 0.9,0 1.1,0.1 0.2,0.1 0.4,0.3 0.6,0.5 0.1,0.2 0.2,0.5 0.2,0.9 0,0.4 -0.1,0.8 -0.3,1 -0.2,0.3 -0.5,0.4 -0.9,0.5 0.2,0.1 0.4,0.3 0.5,0.4 0.1,0.2 0.3,0.5 0.6,0.9 l 0.6,1 h -1.2 l -0.7,-1.2 c -0.3,-0.4 -0.4,-0.7 -0.5,-0.8 -0.1,-0.1 -0.2,-0.2 -0.3,-0.2 -0.1,0 -0.3,-0.1 -0.5,-0.1 h -0.2 v 2.2 h -1.1 z m 0.9,-3.1 h 0.7 c 0.4,0 0.7,0 0.8,-0.1 0.1,0 0.2,-0.1 0.3,-0.2 0.1,-0.1 0.1,-0.2 0.1,-0.4 0,-0.2 0,-0.3 -0.1,-0.4 -0.1,-0.1 -0.2,-0.2 -0.3,-0.2 -0.1,0 -0.4,0 -0.8,0 h -0.8 v 1.3 z"
       id="path666" />
    <path
       d="M 835.1,362.3 V 357 h 1 v 5.4 h -1 z"
       id="path668" />
    <path
       d="m 840.9,361.6 c 0.2,0.2 0.5,0.3 0.8,0.5 l -0.4,0.8 c -0.1,0 -0.3,-0.1 -0.4,-0.2 0,0 -0.3,-0.2 -0.7,-0.5 -0.3,0.2 -0.7,0.2 -1.1,0.2 -0.7,0 -1.3,-0.2 -1.7,-0.7 -0.4,-0.5 -0.6,-1.2 -0.6,-2.1 0,-0.9 0.2,-1.6 0.6,-2.1 0.4,-0.5 1,-0.7 1.7,-0.7 0.7,0 1.3,0.2 1.7,0.7 0.4,0.5 0.6,1.2 0.6,2.1 0,0.4 0,0.8 -0.1,1.1 0,0.4 -0.2,0.7 -0.4,0.9 z m -0.8,-0.6 c 0.3,-0.3 0.4,-0.8 0.4,-1.4 0,-0.6 -0.1,-1.1 -0.4,-1.4 -0.2,-0.3 -0.6,-0.5 -1,-0.5 -0.4,0 -0.7,0.2 -1,0.5 -0.3,0.3 -0.4,0.8 -0.4,1.4 0,0.6 0.1,1.1 0.4,1.4 0.3,0.3 0.6,0.5 0.9,0.5 0.1,0 0.3,0 0.4,-0.1 -0.2,-0.1 -0.4,-0.3 -0.6,-0.3 l 0.3,-0.6 c 0.4,0.1 0.7,0.3 1,0.5 z"
       id="path670" />
    <path
       d="m 842.2,357 h 1 v 2.9 0.9 c 0,0.2 0.1,0.4 0.3,0.5 0.2,0.1 0.4,0.2 0.6,0.2 0.2,0 0.4,0 0.6,-0.1 0.2,-0.1 0.2,-0.2 0.3,-0.4 0.1,-0.2 0.1,-0.5 0.1,-1 v -3 h 1 v 2.8 c 0,0.7 0,1.2 -0.1,1.6 -0.1,0.3 -0.3,0.6 -0.6,0.8 -0.3,0.2 -0.7,0.3 -1.2,0.3 -0.5,0 -0.9,-0.1 -1.2,-0.2 -0.3,-0.2 -0.5,-0.4 -0.6,-0.7 -0.1,-0.3 -0.2,-0.8 -0.2,-1.6 z"
       id="path672" />
    <path
       d="M 847.1,362.3 V 357 h 3.6 v 0.9 h -2.6 v 1.2 h 2.4 v 0.9 h -2.4 v 1.5 h 2.7 v 0.9 h -3.7 z"
       id="path674" />
    <path
       d="m 857.6,362.3 h -1.1 l -0.4,-1.2 h -1.9 l -0.4,1.2 h -1 l 1.9,-5.4 h 1 z m -1.8,-2.1 -0.7,-2 -0.7,2 z"
       id="path676" />
    <path
       d="m 858.1,357 h 1 v 2.9 0.9 c 0,0.2 0.1,0.4 0.3,0.5 0.2,0.1 0.4,0.2 0.6,0.2 0.2,0 0.4,0 0.6,-0.1 0.1,-0.1 0.2,-0.2 0.3,-0.4 0.1,-0.2 0.1,-0.5 0.1,-1 v -3 h 1 v 2.8 c 0,0.7 0,1.2 -0.1,1.6 -0.1,0.3 -0.3,0.6 -0.6,0.8 -0.3,0.2 -0.7,0.3 -1.2,0.3 -0.5,0 -0.9,-0.1 -1.2,-0.2 -0.3,-0.2 -0.5,-0.4 -0.6,-0.7 -0.1,-0.3 -0.2,-0.8 -0.2,-1.6 z"
       id="path678" />
    <path
       d="m 866.6,357 h 1 v 3.4 c 0,0.5 -0.1,1 -0.2,1.2 -0.1,0.3 -0.3,0.5 -0.5,0.6 -0.2,0.1 -0.5,0.2 -0.9,0.2 -0.5,0 -0.8,-0.1 -1.1,-0.4 -0.3,-0.3 -0.4,-0.7 -0.4,-1.3 l 0.9,-0.1 c 0,0.3 0.1,0.5 0.1,0.7 0.1,0.2 0.3,0.3 0.5,0.3 0.2,0 0.4,-0.1 0.5,-0.2 0.1,-0.1 0.1,-0.4 0.1,-0.9 z"
       id="path680" />
    <path
       d="m 873,362.3 h -1.1 l -0.4,-1.2 h -1.9 l -0.4,1.2 h -1 l 1.9,-5.4 h 1 z m -1.8,-2.1 -0.7,-2 -0.7,2 z"
       id="path682" />
    <path
       d="M 873.5,362.3 V 357 h 1.6 c 0.6,0 1,0 1.1,0.1 0.3,0.1 0.5,0.3 0.7,0.5 0.2,0.3 0.3,0.6 0.3,1 0,0.4 -0.1,0.7 -0.2,1 -0.2,0.3 -0.4,0.4 -0.6,0.6 -0.2,0.1 -0.7,0.2 -1.2,0.2 h -0.6 v 2 h -1.1 z m 1,-4.4 v 1.5 h 0.5 c 0.4,0 0.6,0 0.7,-0.1 0.1,0 0.2,-0.1 0.3,-0.3 0.1,-0.1 0.1,-0.3 0.1,-0.4 0,-0.2 0,-0.3 -0.1,-0.5 -0.1,-0.2 -0.2,-0.2 -0.3,-0.2 -0.1,0 -0.4,-0.1 -0.8,-0.1 h -0.4 z"
       id="path684" />
    <path
       d="m 877.8,359.7 c 0,-0.6 0.1,-1.2 0.3,-1.6 0.2,-0.4 0.5,-0.7 0.8,-0.9 0.3,-0.2 0.7,-0.3 1.2,-0.3 0.7,0 1.3,0.2 1.7,0.7 0.4,0.5 0.7,1.2 0.7,2 0,0.9 -0.2,1.6 -0.7,2.1 -0.4,0.4 -1,0.7 -1.6,0.7 -0.7,0 -1.3,-0.2 -1.7,-0.7 -0.5,-0.5 -0.7,-1.1 -0.7,-2 z m 1,-0.1 c 0,0.6 0.1,1.1 0.4,1.4 0.3,0.3 0.6,0.5 1,0.5 0.4,0 0.7,-0.2 1,-0.5 0.3,-0.3 0.4,-0.8 0.4,-1.4 0,-0.6 -0.1,-1.1 -0.4,-1.4 -0.2,-0.3 -0.6,-0.4 -1,-0.4 -0.4,0 -0.7,0.1 -1,0.4 -0.3,0.3 -0.4,0.8 -0.4,1.4 z"
       id="path686" />
    <path
       d="M 883.2,362.3 V 357 h 0.9 l 2,3.6 V 357 h 0.9 v 5.4 h -1 l -1.9,-3.5 v 3.5 h -0.9 z"
       id="path688" />
    <path
       d="m 741.7,359.2 -0.9,0.1 c -0.1,-0.3 -0.3,-0.5 -0.6,-0.5 -0.2,0 -0.4,0.1 -0.6,0.2 -0.1,0.1 -0.2,0.4 -0.2,0.7 0,0.4 0.1,0.6 0.2,0.8 0.1,0.2 0.3,0.2 0.6,0.2 0.2,0 0.3,0 0.4,-0.1 0.1,-0.1 0.2,-0.2 0.2,-0.5 l 0.9,0.1 c -0.2,0.8 -0.7,1.1 -1.6,1.1 -0.6,0 -1,-0.2 -1.3,-0.5 -0.3,-0.3 -0.4,-0.7 -0.4,-1.2 0,-0.5 0.2,-0.9 0.5,-1.2 0.3,-0.3 0.7,-0.4 1.2,-0.4 0.4,0 0.8,0.1 1,0.2 0.3,0.4 0.5,0.6 0.6,1 z"
       id="path690" />
  </g>
  <circle
     cx="740"
     cy="359.79999"
     fill="none"
     r="2.8"
     stroke="#ffffff"
     stroke-miterlimit="10"
     stroke-width="2"
     id="circle694" />
  <path
     d="m 253.3,231.6 h -192 c -4,0 -7.3,-3.3 -7.3,-7.3 v -58.5 c 0,-4 3.3,-7.3 7.3,-7.3 h 192 c 4,0 7.3,3.3 7.3,7.3 v 58.5 c 0.1,4 -3.2,7.3 -7.3,7.3 z"
     fill="#e0e0e0"
     id="path696" />
  <path
     d="M 246,219 H 68.7 c -2.6,0 -4.7,-2.1 -4.7,-4.7 v -39.9 c 0,-2.6 2.1,-4.7 4.7,-4.7 H 246 c 2.6,0 4.7,2.1 4.7,4.7 v 39.9 c 0,2.6 -2.1,4.7 -4.7,4.7 z"
     fill="#999999"
     id="path698" />
  <path
     d="m 64,193.4 h 187 v 1 H 64 Z"
     fill="#4c4c4d"
     id="path700" />
  <path
     d="m 191.3,174.8 h -67.8 c -2.4,0 -7.5,-2 -7.5,-4.4 0,-2.4 2,-4.4 4.4,-4.4 h 73.9 c 2.4,0 4.4,2 4.4,4.4 0,2.4 -5,4.4 -7.4,4.4 z"
     fill="#e0e0e0"
     id="path702" />
  <path
     d="m 414.5,123 h 14.3 v 20.1 h -14.3 z"
     fill="#c2c1c0"
     id="path704" />
  <path
     d="m 421.2,123 h 0.9 v 20.1 h -0.9 z"
     fill="#8c8c8c"
     id="path706" />
</svg>
