<?xml version="1.0" encoding="UTF-8" standalone="no"?>
<svg
   height="1229.7084"
   width="2500"
   viewBox="0 0 300 146.98189"
   version="1.1"
   id="svg20"
   sodipodi:docname="sega.svg"
   inkscape:version="1.1.2 (b8e25be833, 2022-02-05)"
   xmlns:inkscape="http://www.inkscape.org/namespaces/inkscape"
   xmlns:sodipodi="http://sodipodi.sourceforge.net/DTD/sodipodi-0.dtd"
   xmlns="http://www.w3.org/2000/svg"
   xmlns:svg="http://www.w3.org/2000/svg">
  <defs
     id="defs24" />
  <sodipodi:namedview
     id="namedview22"
     pagecolor="#ffffff"
     bordercolor="#666666"
     borderopacity="1.0"
     inkscape:pageshadow="2"
     inkscape:pageopacity="0.0"
     inkscape:pagecheckerboard="0"
     showgrid="false"
     fit-margin-top="200"
     fit-margin-bottom="200"
     inkscape:zoom="0.30235886"
     inkscape:cx="1149.2966"
     inkscape:cy="552.32382"
     inkscape:window-width="3840"
     inkscape:window-height="2097"
     inkscape:window-x="-8"
     inkscape:window-y="-8"
     inkscape:window-maximized="1"
     inkscape:current-layer="svg20"
     fit-margin-left="0"
     fit-margin-right="0" />
  <path
     d="m 147.808,114.64986 c 5.508,5.349 13.019,8.656 21.303,8.656 L 300,123.32086 271.732,38.988863 c -3.861,-8.959 -12.919,-15.233 -23.798,-15.233 -10.833,0 -20.028,6.479 -23.745,15.401 l -9.423,27.471 -0.037,-41.453 -45.709,-0.023 c -8.262,0 -15.689,3.224 -21.159,8.557 l 0.016,-8.52 h -46.801 c -8.717,0 -16.645,3.717 -22.19,9.559 v -9.596 l -44.11,0.038 c -19.042,-0.016 -34.662,14.869 -34.685,34.549 0,9.111 3.982,17.374 9.854,23.496 L 0,83.218863 v 40.086997 l 44.442,-0.008 c 12.487,-0.015 24.861,-7.549 29.162,-16.576 l 0.129,-0.371 c 4.969,10.036 15.339,16.955 27.341,16.955 l 46.733,-0.008 v -8.648"
     fill="#fff"
     id="path2"
     style="fill:#ffffff" />
  <g
     fill="#0060a8"
     id="g14"
     transform="translate(0,23.755863)"
     style="fill:#666666">
    <path
       d="m 6.866,92.691 37.477,-0.038 c 15.333,0 27.759,-12.388 27.759,-27.652 0,-15.294 -12.426,-27.683 -27.759,-27.683 l -9.733,0.053 c -0.767,0 -1.389,-0.629 -1.389,-1.403 0,-0.774 0.622,-1.404 1.389,-1.404 l 37.409,0.008 0.015,-11.736 H 34.602 c -7.237,0 -13.125,5.879 -13.125,13.102 0,7.23 5.887,13.086 13.125,13.086 l 9.779,0.129 c 8.785,0 15.894,7.085 15.894,15.826 0,8.747 -7.108,15.848 -15.894,15.848 h -37.5 z"
       id="path4"
       style="fill:#666666" />
    <path
       d="m 6.881,78.072 h 37.5 c 7.26,0 13.132,-5.856 13.132,-13.094 0,-7.23 -5.872,-13.079 -13.132,-13.079 l -9.779,-0.106 c -8.77,0 -15.886,-7.093 -15.886,-15.856 0,-8.739 7.116,-15.833 15.886,-15.833 L 72.034,20.096 72.019,8.315 H 34.61 c -15.317,0 -27.759,12.374 -27.759,27.653 0,15.279 12.442,27.66 27.759,27.66 l 9.68,0.015 c 0.736,0 1.358,0.6 1.358,1.358 0,0.744 -0.622,1.343 -1.358,1.343 l -37.424,0.03 z m 94.277,2.83 C 94.656,80.902 89.33,75.72 89.33,69.104 V 31.666 c 0,-6.365 5.326,-11.6 11.828,-11.6 l 40.003,0.007 V 8.315 h -40.003 c -13.018,0 -23.563,10.507 -23.563,23.48 v 37.31 c 0,12.974 10.545,23.496 23.563,23.496 l 39.836,0.016 -0.008,-11.729 z"
       id="path6"
       style="fill:#666666;fill-opacity:1" />
    <path
       d="m 92.198,31.795 c 0,-4.961 3.991,-8.982 8.96,-8.982 h 40.003 v 11.774 h -34.465 c -2.761,0 -2.799,2.739 -2.799,2.739 H 132.65 V 49.047 H 92.184 Z m 8.96,46.255 c -4.954,0 -8.975,-3.998 -8.975,-8.945 V 51.838 h 40.466 v 11.745 h -28.753 c 0.038,2.761 2.799,2.775 2.799,2.775 h 34.298 l -0.008,11.676 z m 68.036,2.822 c -6.479,0 -11.774,-5.28 -11.774,-11.768 v -37.31 c 0,-6.494 5.257,-11.729 11.743,-11.729 h 38.745 V 8.315 h -38.835 c -13.012,0 -23.557,10.507 -23.557,23.48 v 37.31 c 0,12.974 10.636,23.496 23.647,23.496 l 38.745,0.016 V 37.326 h -33.297 v 11.721 h 21.53 v 31.825 z"
       id="path8"
       style="fill:#666666" />
    <path
       d="m 160.181,69.104 c 0,4.971 4.021,9.014 8.982,9.014 h 24.201 V 51.823 H 174.64 v 11.76 h 6.949 l 0.022,2.761 h -6.918 c -1.51,0 -2.746,-1.251 -2.746,-2.761 l -0.062,-26.265 c 0,0 -0.008,-2.731 2.777,-2.799 h 33.259 l -0.015,-11.714 -38.745,0.008 a 8.982,8.982 0 0 0 -8.982,8.982 v 37.309 m 84.136,-46.466 a 3.834,3.834 0 0 1 7.237,0 l 18.808,55.563 h -27.54 l 0.03,-13.071 h 9.203 l -4.143,-12.313 -13.496,39.79 h -13.883 z"
       id="path10"
       style="fill:#666666" />
    <path
       d="m 274.152,80.872 h -31.286 v 11.735 h 47.612 L 265.716,19.345 c -2.17,-7.146 -9.323,-12.403 -17.791,-12.403 -8.481,0 -15.612,5.234 -17.798,12.374 l -24.989,73.292 h 12.465 l 24.262,-71.244 a 6.534,6.534 0 0 1 6.039,-4.021 6.58,6.58 0 0 1 6.046,4.006 z"
       id="path12"
       style="fill:#666666" />
  </g>
  <path
     d="m 281.504,41.394863 a 8.272,8.272 0 0 0 5.865,-2.42 c 1.562,-1.57 2.435,-3.641 2.435,-5.856 0,-2.2 -0.873,-4.264 -2.435,-5.834 a 8.298,8.298 0 0 0 -5.865,-2.412 c -4.559,0 -8.284,3.695 -8.284,8.247 0,2.215 0.865,4.286 2.442,5.856 a 8.224,8.224 0 0 0 5.842,2.419 m -7.115,-8.277 c 0,-1.889 0.728,-3.679 2.085,-5.022 a 7.09,7.09 0 0 1 5.03,-2.071 c 1.912,0 3.702,0.729 5.053,2.071 a 7.072,7.072 0 0 1 2.087,5.022 c 0,3.922 -3.202,7.108 -7.14,7.108 -1.89,0 -3.68,-0.736 -5.03,-2.079 -1.358,-1.342 -2.085,-3.125 -2.085,-5.029 z"
     fill="#231f20"
     id="path16"
     style="fill:#f9f9f9" />
  <path
     d="m 279.38,33.815863 v 3.899 h -1.199 v -9.164 h 3.406 c 1.283,0.015 2.034,0.015 2.747,0.553 0.69,0.509 0.979,1.275 0.979,2.125 0,2.14 -1.744,2.42 -2.186,2.511 l 2.58,3.975 h -1.449 l -2.511,-3.899 z m 0,-1.009 h 2.435 c 0.388,0 0.752,0 1.116,-0.091 0.85,-0.205 1.153,-0.812 1.153,-1.479 0,-0.243 -0.023,-0.857 -0.547,-1.282 -0.479,-0.402 -1.085,-0.387 -1.79,-0.387 h -2.367 z"
     fill="#231f20"
     id="path18"
     style="fill:#f9f9f9" />
</svg>
